<!-- Generator: Adobe Illustrator 24.0.1, SVG Export Plug-In  -->
<svg version="1.1" xmlns="http://www.w3.org/2000/svg" xmlns:xlink="http://www.w3.org/1999/xlink" x="0px" y="0px"
	 width="227.33px" height="120.37px" viewBox="0 0 227.33 120.37" style="enable-background:new 0 0 227.33 120.37;"
	 xml:space="preserve">
<style type="text/css">
	.st0{fill:none;stroke:#000000;stroke-width:1.9068;stroke-miterlimit:3.8637;stroke-dasharray:4.4314,4.4314;}
	.st1{fill:#008348;}
	.st2{fill-rule:evenodd;clip-rule:evenodd;fill:#008348;}
	.st3{fill-rule:evenodd;clip-rule:evenodd;fill:#FFFFFF;}
	.st4{fill-rule:evenodd;clip-rule:evenodd;fill:#007CC2;}
	.st5{fill-rule:evenodd;clip-rule:evenodd;fill:#009463;}
	.st6{fill:none;stroke:#000000;stroke-width:0.216;stroke-miterlimit:2.6131;}
</style>
<defs>
</defs>
<path class="st0" d="M227.33,28.61"/>
<g>
	<g>
		<path class="st1" d="M0,101.56h3.56l3.87,12.77l3.92-12.77h3.51L9.2,120.14H5.67L0,101.56z"/>
	</g>
	<g>
		<path class="st1" d="M15.28,109.07c0.65-0.78,1.44-1.37,2.36-1.78c0.92-0.42,1.89-0.61,2.94-0.61c1.09,0,2.04,0.19,2.87,0.58
			c0.6,0.29,1.12,0.78,1.56,1.46c0.44,0.68,0.67,1.53,0.67,2.54v6.17c0,0.39,0.04,0.86,0.14,1.41c0.1,0.55,0.2,0.99,0.31,1.31H23.2
			c-0.13-0.44-0.24-0.9-0.31-1.36c-0.6,0.52-1.22,0.92-1.86,1.19c-0.65,0.26-1.31,0.4-2,0.4c-1.2,0-2.19-0.36-2.96-1.09
			c-0.77-0.72-1.16-1.58-1.16-2.58c0-0.7,0.17-1.36,0.53-1.99c0.36-0.62,0.88-1.16,1.57-1.63c0.69-0.47,1.56-0.84,2.6-1.12
			c0.78-0.21,1.84-0.39,3.17-0.54c0-0.56-0.05-0.96-0.14-1.22c-0.15-0.39-0.41-0.69-0.77-0.91c-0.36-0.22-0.82-0.33-1.35-0.33
			c-1.29,0-2.37,0.58-3.24,1.76L15.28,109.07z M22.78,116.64v-3.32c-1.94,0.37-3.26,0.87-3.98,1.5c-0.56,0.48-0.84,1.02-0.84,1.61
			c0,0.49,0.16,0.89,0.48,1.21c0.32,0.32,0.73,0.48,1.22,0.48c0.43,0,0.89-0.13,1.42-0.38C21.59,117.5,22.16,117.13,22.78,116.64z"
			/>
		<path class="st1" d="M29.38,106.91h3.39v9.09c0,0.46,0.13,0.82,0.39,1.1c0.26,0.27,0.59,0.4,0.99,0.4c0.41,0,0.83-0.12,1.26-0.35
			c0.43-0.24,0.95-0.68,1.57-1.34v-8.9h3.36v13.23h-3.36v-1.99c-0.76,0.77-1.54,1.34-2.33,1.68c-0.78,0.35-1.48,0.52-2.07,0.52
			c-0.55,0-1.06-0.12-1.54-0.38c-0.48-0.25-0.88-0.67-1.19-1.23c-0.31-0.57-0.47-1.26-0.47-2.09V106.91z"/>
		<path class="st1" d="M52.29,101.28h3.35v18.86h-3.35v-1.53c-0.55,0.58-1.13,1.03-1.74,1.32c-0.6,0.29-1.24,0.43-1.91,0.43
			c-1.31,0-2.43-0.53-3.35-1.61c-1.1-1.31-1.65-3.04-1.65-5.18c0-1.11,0.16-2.11,0.47-3.01c0.31-0.89,0.69-1.61,1.13-2.15
			c0.44-0.53,0.95-0.95,1.53-1.26c0.58-0.32,1.22-0.47,1.92-0.47c0.67,0,1.31,0.14,1.91,0.43c0.6,0.3,1.16,0.74,1.69,1.33V101.28z
			 M52.29,116.34v-5.55c-0.4-0.43-0.79-0.76-1.18-0.97c-0.39-0.22-0.78-0.32-1.17-0.32c-0.73,0-1.34,0.32-1.83,0.94
			c-0.5,0.62-0.74,1.7-0.74,3.21c0,1.37,0.25,2.37,0.77,3.01c0.51,0.64,1.13,0.96,1.83,0.96c0.41,0,0.8-0.1,1.19-0.32
			C51.54,117.08,51.92,116.77,52.29,116.34z"/>
		<path class="st1" d="M63.16,110.07c0.76-1.26,1.46-2.14,2.13-2.61c0.66-0.48,1.39-0.75,2.17-0.78v3.4h-0.3
			c-0.82,0-1.6,0.25-2.33,0.76c-0.73,0.51-1.29,1.23-1.67,2.17v7.13h-3.37v-13.23h3.37V110.07z"/>
		<path class="st1" d="M81.24,116.96c-0.3,0.58-0.59,1.02-0.84,1.32c-0.4,0.48-0.86,0.87-1.35,1.18c-0.49,0.31-1,0.53-1.53,0.68
			c-0.52,0.15-1.08,0.22-1.65,0.22c-1.12,0-2.18-0.28-3.19-0.86c-1.01-0.56-1.78-1.4-2.31-2.48c-0.54-1.1-0.8-2.31-0.8-3.65
			c0-2.04,0.58-3.66,1.73-4.88c1.15-1.21,2.63-1.81,4.42-1.81c1.76,0,3.17,0.55,4.23,1.65c1.06,1.1,1.59,2.65,1.59,4.63
			c0,0.26-0.01,0.64-0.03,1.14h-8.41c0.04,1.2,0.32,2.09,0.84,2.67c0.52,0.58,1.17,0.88,1.95,0.88c0.6,0,1.11-0.16,1.53-0.47
			c0.42-0.31,0.78-0.77,1.09-1.38L81.24,116.96z M78.51,112.11c-0.05-1.02-0.33-1.79-0.85-2.34c-0.52-0.54-1.16-0.81-1.91-0.81
			c-0.72,0-1.33,0.26-1.83,0.79c-0.5,0.53-0.78,1.32-0.84,2.36H78.51z"/>
		<path class="st1" d="M84.33,106.91h3.39v9.09c0,0.46,0.13,0.82,0.39,1.1c0.26,0.27,0.59,0.4,0.98,0.4c0.4,0,0.83-0.12,1.26-0.35
			c0.43-0.24,0.95-0.68,1.56-1.34v-8.9h3.37v13.23h-3.37v-1.99c-0.76,0.77-1.53,1.34-2.32,1.68c-0.79,0.35-1.48,0.52-2.07,0.52
			c-0.54,0-1.05-0.12-1.53-0.38c-0.48-0.25-0.88-0.67-1.19-1.23c-0.31-0.57-0.47-1.26-0.47-2.09V106.91z"/>
		<path class="st1" d="M99.72,101.28h3.33v3.34h-3.33V101.28z M99.72,106.91h3.33v13.23h-3.33V106.91z"/>
		<path class="st1" d="M107.89,101.28h3.35v18.86h-3.35V101.28z"/>
		<path class="st1" d="M115.01,111.92h6.43v3.1h-6.43V111.92z"/>
		<path class="st1" d="M125,101.56h6.75c1.61,0,3.04,0.39,4.3,1.17c1.26,0.79,2.23,1.89,2.89,3.32c0.65,1.42,0.99,2.98,0.99,4.64
			c0,1.66-0.28,3.16-0.86,4.49c-0.56,1.33-1.3,2.38-2.19,3.14c-0.64,0.54-1.47,0.98-2.49,1.32c-1.02,0.34-2.1,0.5-3.23,0.5H125
			V101.56z M128.7,104.69v12.2h2.53c0.9,0,1.7-0.24,2.4-0.72c0.7-0.48,1.24-1.12,1.62-1.91c0.55-1.12,0.83-2.34,0.83-3.66
			c0-1.8-0.52-3.23-1.56-4.3c-1.05-1.07-2.38-1.62-4.03-1.62H128.7z"/>
		<path class="st1" d="M147.99,106.68c1.97,0,3.52,0.58,4.64,1.76c1.11,1.17,1.68,2.84,1.68,5c0,2.17-0.57,3.88-1.7,5.1
			c-1.13,1.22-2.55,1.84-4.25,1.84c-1.63,0-3.04-0.58-4.25-1.74c-1.2-1.16-1.8-2.88-1.8-5.18c0-2.17,0.54-3.84,1.62-5.02
			C145,107.26,146.36,106.68,147.99,106.68z M148.34,108.89c-0.77,0-1.37,0.29-1.8,0.88c-0.59,0.79-0.88,2.05-0.88,3.77
			c0,1.58,0.26,2.7,0.78,3.38c0.52,0.66,1.14,1,1.87,1c0.51,0,0.98-0.16,1.4-0.49c0.43-0.32,0.73-0.79,0.91-1.4
			c0.27-0.85,0.4-1.81,0.4-2.88c0-0.8-0.1-1.55-0.33-2.24c-0.22-0.69-0.55-1.2-0.96-1.52C149.29,109.05,148.83,108.89,148.34,108.89
			z"/>
		<path class="st1" d="M160.88,110.07c0.76-1.26,1.46-2.14,2.13-2.61c0.67-0.48,1.38-0.75,2.18-0.78v3.4h-0.3
			c-0.83,0-1.6,0.25-2.34,0.76c-0.73,0.51-1.28,1.23-1.66,2.17v7.13h-3.38v-13.23h3.38V110.07z"/>
		<path class="st1" d="M168.41,101.28h3.33v3.34h-3.33V101.28z M168.41,106.91h3.33v13.23h-3.33V106.91z"/>
		<path class="st1" d="M180.9,106.68c1.97,0,3.51,0.58,4.63,1.76c1.12,1.17,1.68,2.84,1.68,5c0,2.17-0.56,3.88-1.69,5.1
			c-1.14,1.22-2.55,1.84-4.25,1.84c-1.63,0-3.04-0.58-4.24-1.74c-1.21-1.16-1.81-2.88-1.81-5.18c0-2.17,0.54-3.84,1.62-5.02
			C177.91,107.26,179.26,106.68,180.9,106.68z M181.24,108.89c-0.76,0-1.36,0.29-1.8,0.88c-0.59,0.79-0.88,2.05-0.88,3.77
			c0,1.58,0.26,2.7,0.78,3.38c0.52,0.66,1.15,1,1.87,1c0.51,0,0.98-0.16,1.4-0.49c0.43-0.32,0.72-0.79,0.91-1.4
			c0.26-0.85,0.4-1.81,0.4-2.88c0-0.8-0.11-1.55-0.33-2.24c-0.22-0.69-0.54-1.2-0.97-1.52C182.2,109.05,181.74,108.89,181.24,108.89
			z"/>
		<path class="st1" d="M193.74,108.71c0.69-0.66,1.41-1.17,2.15-1.52s1.55-0.52,2.44-0.52c1,0,1.73,0.24,2.16,0.73
			c0.58,0.64,0.87,1.53,0.87,2.66v10.08h-3.33v-9.23c0-0.55-0.1-0.94-0.31-1.16c-0.21-0.23-0.51-0.34-0.89-0.34
			c-0.42,0-0.85,0.11-1.32,0.34c-0.46,0.23-1.05,0.68-1.77,1.34v9.05h-3.36v-13.23h3.36V108.71z"/>
	</g>
	<path class="st2" d="M13.29,0h79.84c3.36,0,6.11,2.76,6.11,6.12v79.92c0,3.37-2.75,6.13-6.11,6.13H13.29
		c-3.37,0-6.11-2.76-6.11-6.13V6.12C7.17,2.76,9.92,0,13.29,0L13.29,0z"/>
	<path class="st3" d="M46.51,82.02v-16.9l6.64-6.64l6.64,6.68l0.01,16.28c-0.01,4.62,1.83,7.07,6.72,7.08h25.67
		c1.8-0.08,2.97-0.96,3.05-2.77V6.16c0.1-1.64-0.62-2.26-2.4-2.46H13.04c-1.43,0.07-2.19,0.61-2.18,2.59l0,79.75
		c0.08,1.19,0.81,2.33,2.48,2.4l26.67,0.02C43.92,88.42,46.51,86.29,46.51,82.02L46.51,82.02z"/>
	<path class="st4" d="M61.53,66.93L61.5,81.78c0.12,2.41,1.02,4.49,4.05,4.49l23.76,0.01c2.47-0.1,3.63-0.83,3.75-3.68v-73
		c0.09-1.88-1.56-3.56-3.55-3.76L15.59,5.83c-2.42,0.1-2.97,1.37-2.9,3.55l0.1,73.23c-0.08,2.58,0.46,3.48,3.43,3.66h23.37
		c3.53,0,4.8-1.54,4.77-4.82l0.01-14.52l-2.28,2.3c-8.32,7.21-20.15-4.18-11.94-12.53l1.96-1.98h-3.22
		c-11.83,0-10.27-17.34-0.1-17.34h3.32l-2.07-2.09c-8.62-10.45,5.09-19.33,12.16-12.01l2.17,2.19l0.01-3.23
		c-0.01-11.5,16.92-10.66,17.13-0.21v3.23l2.28-2.29c7.48-7.23,20.77,3.65,11.94,12.32l-1.96,1.98h3.12
		c11.1,0.11,11.52,17.33,0,17.33h-3.12l2.29,2.31c7.89,8.76-4.58,19.42-12.36,12.2L61.53,66.93L61.53,66.93z"/>
	<path class="st5" d="M31.39,24.45c-2.42,2.75-2.84,5.9-0.11,9.17l16.22,16.4c3.68,3.5,7.75,2.86,11.1-0.09l16.74-16.84
		c2.22-2.53,1.9-5.47-0.85-8.63c-3.94-3.16-6.35-2.41-8.79-0.41L52.94,36.88L40.72,24.52C37.75,21.93,34.72,21.41,31.39,24.45
		L31.39,24.45z"/>
	<path class="st2" d="M46.32,22.1c0.52-8.82,13.01-8.21,13.2,0.17v4.99l-6.6,6.66l-6.59-6.65V22.1L46.32,22.1z"/>
	<path class="st2" d="M29,52.87c-8.8-0.53-8.19-13.03,0.18-13.21h4.98l6.65,6.6l-6.65,6.61H29L29,52.87z"/>
	<path class="st2" d="M77.06,39.5c8.81,0.52,8.2,13.03-0.17,13.21h-4.98l-6.66-6.6l6.65-6.61H77.06L77.06,39.5z"/>
	<path class="st2" d="M52.88,55.64L40.67,67.86c-5.41,5.24-15.71-2.43-9.45-9.24L42.15,47.6l3.58,3.58
		c4.86,4.23,9.93,4.03,14.43-0.01l3.53-3.57l10.64,10.69c6.26,7.55-3.79,14.51-9.26,9.58L52.88,55.64L52.88,55.64z"/>
	<path class="st6" d="M85.36,46.05v0.08 M75.88,23.21l-0.06-0.06"/>
	<path class="st4" d="M197.99,0v64.18c0,0,0,27.3-25.69,27.95l-59.88,0.03V32.91C112.4,32.69,113.25,6.02,138.74,0h32.91v19.75
		h-32.91c-1.43,0.09-1.54,0.11-3.18,1.41c-2.4,1.89-5.24,5.43-5.04,10.11v41.14h39.49c0.52,0.28,10.36-1.54,9.87-8.23V0H197.99
		L197.99,0z"/>
	<path class="st2" d="M171.66,29.62h-28.78c0,0-4.11,2.16-4.11,6.45v27.98h24.88c0,0,8.02,1.54,8.02-6.45V29.62L171.66,29.62z"/>
	<polygon class="st3" points="161.38,29.62 161.38,40.38 171.66,40.38 171.66,42.54 159.32,42.54 159.32,29.62 161.38,29.62 	"/>
	<polygon class="st3" points="171.66,55.45 146.99,55.45 146.99,29.62 149.05,29.62 149.05,53.3 171.66,53.3 171.66,55.45 	"/>
	<polygon class="st3" points="170.09,29.63 171.66,29.62 171.64,31.24 140.28,64.06 138.77,64.06 138.74,62.45 170.09,29.63 	"/>
	<path class="st3" d="M112.41,87.22h75.09c-1.21,0.88-1.22,0.88-2.47,1.64h-72.62V87.22L112.41,87.22z"/>
	<path class="st3" d="M112.41,82.28l79.84,0.01c-0.61,0.82-0.61,0.81-1.28,1.64h-78.56V82.28L112.41,82.28z"/>
	<path class="st3" d="M112.41,75.7h83.29c-0.22,0.56-0.43,1.1-0.66,1.64h-82.62V75.7L112.41,75.7z"/>
	<polygon class="st3" points="112.41,64.18 130.52,64.18 130.52,65.83 112.41,65.83 112.41,64.18 	"/>
	<path class="st3" d="M178.24,64.18h19.74c0,0.62-0.03,1.1-0.08,1.65h-19.67C178.5,65.04,178.13,65.17,178.24,64.18L178.24,64.18z"
		/>
</g>
</svg>
