<!-- Generator: Adobe Illustrator 23.0.4, SVG Export Plug-In  -->
<svg version="1.1" xmlns="http://www.w3.org/2000/svg" xmlns:xlink="http://www.w3.org/1999/xlink" x="0px" y="0px"
	 width="405.22px" height="146.02px" viewBox="0 0 405.22 146.02" style="enable-background:new 0 0 405.22 146.02;"
	 xml:space="preserve">
<style type="text/css">
	.st0{fill:none;}
	.st1{fill:#007DC0;}
	.st2{fill:#009364;}
	.st3{fill:#48B98B;}
	.st4{fill:#63B7DC;}
	.st5{fill:#96D1B6;}
</style>
<defs>
</defs>
<g>
	<path d="M111.6,15.91c0.01-0.09,0.01-0.19,0.02-0.28c0.3,0,0.42-0.33,0.45-0.6c0,0,0,0,0,0c0.04-0.01,0.07-0.01,0.11-0.02l0.1,0.1
		c0,0.04,0.01,0.08,0.01,0.13c0,0.09-0.01,0.19-0.01,0.28c-0.01,0.08-0.04,0.16,0,0.24l0.09-0.03c0.03-0.07,0.01-0.14,0.01-0.21
		c0,0,0,0,0,0c-0.02-0.12,0.18-0.06,0.23-0.13c0.06,0.03,0.13,0.05,0.19,0.08c0,0.05,0.01,0.09,0.01,0.14l0.54-0.15
		c0-0.01,0.01-0.02,0.01-0.03c0.01-0.06,0.03-0.12,0.13-0.13c0.1-0.01,0.15,0.02,0.19,0.07l0.21-0.06c0-0.02,0-0.05-0.01-0.07
		l0.12-1.03c0.02-0.03,0.03-0.05,0.05-0.08c0.13,0.01,0.18,0.05,0.2,0.13c0.01,0.08-0.07,0.17,0.09,0.23
		c0.11-0.08,0.12-0.18,0.18-0.28c-0.02-0.01-0.04-0.01-0.05-0.02c0.34-0.28,0.11-0.67,0.41-0.96c0.05,0.39,0.06,0.78,0.04,1.17
		c-0.01,0.15,0.02,0.3,0.1,0.45c0,0,0.01,0,0.01,0c0,0,0,0.01,0,0.01c0.01,0.04,0.01,0.09,0.02,0.13l0.68-0.19
		c0-0.23,0.1-0.46-0.05-0.69c0.01-0.18,0.01-0.37,0.02-0.55c0.04-0.05,0.04-0.09,0-0.14c0.03-0.14,0.03-0.28,0.01-0.42
		c0.07-0.11,0.05-0.23,0.05-0.34c0.02-0.7-0.01-1.41-0.08-2.12c0.03-0.46-0.08-0.92-0.28-1.37c-0.08-0.18-0.07-0.37-0.25-0.53
		c-0.14-0.12-0.14-0.01-0.17,0.05c-0.06,0-0.08,0.03-0.08,0.06l-0.02,0c-0.37,0.08-0.25-0.13-0.33-0.22
		c-0.1-0.11-0.23-0.21-0.33-0.32c-0.16-0.18-0.36-0.36-0.7-0.44c-0.01-0.06-0.03-0.13-0.04-0.19c-0.21-0.19-0.33-0.4-0.31-0.64
		c0.01-0.06-0.03-0.15-0.19-0.1c-0.13,0.16-0.14,0.33-0.06,0.51c0.11,0.25,0.16,0.51,0.14,0.76c-0.04,0.19,0.05,0.4-0.24,0.54
		l0-0.34c-0.07-0.21-0.03-0.44-0.19-0.64c0.01-0.19,0.03-0.39,0.02-0.58c0-0.13,0.09-0.27-0.09-0.39c-0.03,0.02-0.07,0.04-0.1,0.06
		c-0.01,0-0.01-0.01-0.02-0.01c-0.14,0.1-0.11,0.28-0.34,0.34c0,0,0,0,0,0c-0.07,0.13-0.22,0.27-0.18,0.39
		c0.09,0.28-0.11,0.48-0.27,0.7c0-0.16,0-0.33,0-0.49c0-0.15,0.01-0.3-0.01-0.45c-0.02-0.15-0.07-0.29-0.11-0.44
		c-0.02,0-0.04,0-0.06,0.01l-0.03,0.9c-0.01,0.02-0.02,0.04-0.03,0.05c-0.22-0.01-0.3-0.13-0.26-0.22c0.05-0.13-0.02-0.25,0.03-0.38
		c0.12-0.3-0.1-0.58-0.24-0.87l-0.01,0.34c-0.03,0.25-0.24,0.49-0.15,0.76c0,0.14-0.09,0.23-0.33,0.19l-0.01,0.22
		c0,0.07-0.01,0.14-0.01,0.21c-0.07,0.04-0.14,0.09-0.21,0.13c-0.02-0.07,0.04-0.15-0.07-0.22c-0.08,0.2-0.11,0.4-0.1,0.6
		c0,0.02,0.01,0.05,0.01,0.07c0.02,0.06-0.01,0.13-0.11,0.13c-0.11,0.01-0.07-0.06-0.09-0.1c-0.01-0.02,0.01-0.12-0.08-0.03
		c-0.19,0.19-0.24,0-0.34-0.05c-0.12-0.13-0.1-0.27-0.09-0.41c0.02-0.2,0-0.39-0.09-0.58c-0.04,0-0.07,0-0.11-0.01
		c-0.15,0.03-0.18,0.1-0.19,0.18c-0.01-0.01-0.02-0.03-0.04-0.04c-0.04-0.04-0.07-0.07-0.1-0.11c-0.03-0.04-0.05-0.08-0.12-0.1
		c-0.03-0.02-0.06-0.03-0.09-0.05l0,0c0.03-0.08-0.05-0.13-0.1-0.19c-0.02-0.17-0.12-0.3-0.42-0.3c-0.04-0.05-0.09-0.1-0.13-0.15
		c-0.22-0.31-0.22-0.31-0.74-0.17c-0.07,0-0.14,0-0.22,0c-0.09-0.11-0.32-0.06-0.41-0.16c-0.03-0.08-0.05-0.18-0.22-0.07
		c-0.06,0-0.1,0.02-0.12,0.06c-0.21-0.01-0.38-0.11-0.6-0.1c-0.25,0-0.48-0.07-0.69-0.16c-0.18-0.06-0.36-0.09-0.54-0.02
		c-0.12,0-0.27,0.02-0.37-0.02c-0.33-0.11-0.58-0.02-0.82,0.1c0,0,0,0,0,0l-0.01,0.01c-0.2,0.07-0.46,0-0.65,0.1
		c-0.24,0-0.4,0.09-0.54,0.2c-0.15-0.02-0.29-0.1-0.43-0.01c-0.55-0.12-0.97,0.07-1.41,0.21c-0.06-0.04-0.09-0.15-0.22-0.06
		c-0.07,0.05-0.08,0.12-0.24,0.08c-0.44-0.13-0.67-0.07-0.78,0.2c-0.19,0.48-0.37,0.96-0.54,1.44c-0.18,0.52-0.31,1.04-0.42,1.56
		c-0.11,0.53-0.28,1.04-0.46,1.56c-0.55,0.21-1.01,0.47-1.36,0.82c-0.02-0.41,0.09-0.81,0.04-1.23c0.05-0.26,0.11-0.52,0.15-0.79
		c0.03-0.18,0.07-0.36-0.07-0.54c-0.01-0.02-0.02-0.05-0.02-0.07c0.03-0.04,0.03-0.08-0.01-0.12c0.02-0.44-0.03-0.88-0.29-1.3
		c-0.09-0.26-0.09-0.52-0.27-0.77c0.01-0.07,0.06-0.16-0.09-0.19c-0.11-0.02-0.11,0.06-0.13,0.11c-0.08,0.02-0.09,0.07-0.12,0.12
		c-0.15-0.07-0.01-0.21-0.18-0.28c-0.03-0.01-0.02-0.13-0.09-0.02c-0.05,0.09-0.04,0.2-0.05,0.3c0,0.02,0,0.05,0.01,0.07
		c-0.15,0.07-0.03,0.15,0.01,0.22c-0.02,0.11-0.16,0.22-0.02,0.34c0.13,0.11,0.03,0.26,0.2,0.36c0.01,0.1,0.03,0.21-0.09,0.29
		c-0.05-0.03-0.09-0.06-0.14-0.09c-0.02-0.07-0.1-0.08-0.18-0.1c-0.16-0.29-0.16-0.59-0.15-0.88c0.01-0.13,0-0.25-0.07-0.37
		c0,0,0,0,0,0s0,0,0,0c-0.03-0.25,0.22-0.5,0.03-0.76c-0.02,0-0.05-0.01-0.07-0.01c0-0.47-0.16-0.94-0.18-1.42
		c-0.01-0.2-0.1-0.41-0.21-0.61c-0.06-0.11-0.1,0-0.12,0.04c-0.11-0.02-0.21-0.12-0.32-0.01c-0.03,0-0.07,0-0.1,0
		c-0.03-0.05-0.06-0.1-0.1-0.15c0.05-0.52-0.16-1.02-0.47-1.5c0-0.08-0.05-0.15-0.12-0.22l0,0c-0.02-0.12-0.12-0.16-0.21-0.05
		c-0.2,0.23-0.27,0.48-0.14,0.75l-0.01-0.01c-0.2,0.12-0.27,0.26-0.1,0.43c0,0.04,0,0.09,0,0.13v0c-0.05,0.09-0.05,0.2-0.08,0.3
		l-0.26,0.11v0c-0.05-0.11,0.02-0.25-0.12-0.34c-0.17-0.13,0.02-0.32-0.2-0.44c0-0.02,0-0.05,0-0.07c-0.04,0.01-0.06,0.02-0.08,0.04
		l0.03-0.2c0.02,0,0.03,0.01,0.05,0.02c0.01-0.16,0.01-0.31,0.02-0.47l0,0l0,0c0.01-0.15,0.02-0.31,0.04-0.46
		c0.03-0.17-0.11-0.25-0.29-0.34c-0.02-0.02-0.03-0.04-0.05-0.07c0,0,0,0,0,0c-0.02-0.21-0.2-0.34-0.5-0.43
		c-0.6-0.16-1.23-0.14-1.85-0.18C89.15,1.48,89.06,1.49,89,1.55c-0.31,0.08-0.63,0.15-0.94,0.23c-0.09,0.02-0.18,0.02-0.24,0.07
		c-0.49,0.06-0.83,0.26-1.19,0.45c0,0,0.01,0,0.01,0.01c0,0,0,0,0,0l-0.01-0.01c-0.06,0-0.1,0.02-0.1,0.05l0,0
		c-0.69,0.32-1.03,0.8-1.39,1.27c-0.17,0.14-0.28,0.3-0.32,0.48c-0.2,0.19-0.22,0.43-0.38,0.63c-0.04,0-0.07,0.01-0.09,0.03
		c-0.34-0.09-0.61-0.26-0.93-0.37c-0.49-0.18-1.05-0.27-1.52-0.48c-0.26-0.11-0.55-0.2-0.85-0.25c-0.33-0.08-0.66-0.16-0.99-0.24
		c-0.57-0.12-1.12-0.29-1.72-0.29c-0.03-0.01-0.06-0.01-0.09-0.01c-0.36-0.17-0.78-0.16-1.19-0.17c-0.04-0.01-0.08-0.02-0.11-0.03
		c-0.25-0.27-0.45-0.58-0.92-0.74c-0.02-0.06-0.04-0.11-0.13-0.14l0,0c-0.02-0.03-0.04-0.06-0.08-0.09
		c-0.14-0.13-0.07-0.32-0.22-0.42c-0.18-0.12-0.49-0.02-0.71-0.09c-0.28-0.09-0.51-0.17-0.71,0.05c-0.04,0.05-0.16,0.03-0.25,0.03
		c-0.32,0.01-0.63-0.02-0.94-0.09c-0.11-0.06-0.06-0.17-0.2-0.22c-0.1-0.1-0.31-0.15-0.32-0.29c0.05-0.15,0.05-0.28-0.29-0.24
		c-0.18,0.02-0.26-0.06-0.33-0.14c0.04-0.12,0.09-0.24,0.13-0.36c0.02-0.06,0.04-0.12-0.05-0.16c-0.09-0.04-0.17-0.01-0.23,0.04
		c-0.12,0.08-0.25,0.16-0.35,0.25c-0.19,0.17-0.36,0.36-0.53,0.54C70.65,0.91,70.56,1,70.49,1.1c-0.22,0.11,0,0.29-0.13,0.42
		c-0.12,0.03-0.09,0.11-0.14,0.17c-0.21,0.24-0.37,0.26-0.75,0.11c-0.1-0.04-0.19-0.11-0.35-0.08c-0.1,0.16,0.05,0.37-0.19,0.51
		c0.01,0.01,0.02,0.02,0.03,0.02c0,0,0,0,0,0l-0.02-0.02c-0.25,0-0.49-0.01-0.74-0.01c0,0,0,0,0,0c0,0,0,0,0,0
		c-0.28-0.12-0.6-0.15-0.89-0.11c-0.41,0.05-0.78,0-1.17-0.07c-0.09-0.04-0.17-0.11-0.26-0.12c-0.45-0.05-0.78-0.23-1.09-0.43
		c-0.11-0.07-0.24-0.11-0.42-0.03c0.16,0.13,0.3,0.27,0.28,0.44c-0.03,0.22-0.08,0.25-0.41,0.26c-0.36,0.01-0.66-0.06-0.89-0.25
		c-0.14-0.18-0.31-0.33-0.59-0.45c-0.42-0.19-0.86-0.24-1.34-0.24c-0.35-0.11-0.7-0.2-1.03,0c-0.08,0.2,0.16,0.29,0.36,0.39
		c0.08,0.1,0.21,0.22,0.08,0.32c-0.14,0.11-0.32-0.01-0.48-0.04c-0.08-0.01-0.16-0.06-0.24-0.08C60,1.79,59.89,1.77,59.83,1.81
		C59.51,2,59.12,1.87,58.76,1.88c-0.17-0.07-0.32-0.14-0.44-0.25c-0.16-0.15-0.31-0.32-0.63-0.36c-0.26-0.14-0.55-0.09-0.82-0.07
		c-0.27,0.02-0.54,0.05-0.8,0.01c-0.41-0.07-0.81-0.07-1.22-0.06c-0.29,0-0.51,0.06-0.75,0.14c-0.24,0.08-0.33,0.24-0.53,0.32l0,0
		c-0.25-0.04-0.49-0.1-0.74-0.02c0,0,0,0,0,0c0,0,0,0,0,0c-0.25-0.08-0.49-0.18-0.78-0.12c-0.07-0.03-0.14-0.04-0.22-0.02
		c-0.31-0.01-0.66-0.15-0.87,0.12l0,0c-0.18-0.03-0.36-0.05-0.54-0.04c-0.03-0.01-0.06-0.02-0.1-0.01c-0.2-0.07-0.16-0.21-0.24-0.32
		c-0.6,0.14-1.23,0.11-1.81,0.23c0,0,0,0,0,0c-0.12,0-0.25-0.01-0.37-0.01c-0.17-0.08-0.36-0.21-0.56-0.12
		c-0.25,0.12-0.56,0.1-0.8,0.2c-0.09,0.03-0.18,0.05-0.26,0.08l0,0v0c-0.74-0.03-0.87-0.06-1.42-0.28c-0.09-0.04-0.2-0.05-0.3-0.07
		c-0.59-0.13-1.15-0.08-1.73,0.02c-0.38,0.06-0.78,0.09-1.11-0.13C41.57,1,41.4,0.97,41.22,1c-0.12,0.02-0.1,0.08-0.01,0.13
		c0.03,0.09,0.07,0.19,0.1,0.28c-0.04,0.04-0.09,0.07-0.13,0.11C41,1.54,40.8,1.5,40.65,1.59c-0.1,0-0.2-0.01-0.3-0.01
		c-0.07-0.08-0.14-0.16-0.12-0.26c0.02-0.14-0.13-0.17-0.3-0.18c-0.09-0.07-0.24-0.1-0.34-0.06c-0.37,0.15-0.78,0.08-1.18,0.07
		c-0.15-0.01-0.32-0.04-0.45,0.05c-0.36,0.05-0.72,0.09-1.07-0.04c-0.06-0.09-0.15-0.08-0.23-0.02c0,0,0,0,0,0
		c-0.27,0.02-0.54-0.01-0.82,0.08c-0.23,0.07-0.55,0.09-0.79-0.07c-0.11-0.12-0.3-0.11-0.43-0.07c-0.3,0.09-0.65,0.13-0.79,0.36l0,0
		c-0.21-0.01-0.09-0.08-0.07-0.14c0.04-0.15-0.06-0.22-0.28-0.19c-0.26,0.04-0.38,0.17-0.38,0.33c-0.01,0.2-0.17,0.29-0.45,0.32
		c-0.22,0-0.45,0.06-0.62-0.12c-0.06-0.06-0.19,0-0.26,0.06c-0.04-0.01-0.07,0-0.1,0.01c-0.51,0.03-1.01-0.08-1.54-0.02
		c-0.28,0.03-0.53-0.03-0.77,0.15c-0.14,0.11-0.4,0.1-0.64,0.12c-0.06,0-0.13,0.01-0.21,0.03c-0.47,0-0.93,0.09-1.4,0.03
		c-0.37-0.04-0.37-0.04-0.39-0.3c-0.01-0.03,0-0.09-0.02-0.09c-0.23-0.05-0.34-0.13-0.3-0.31c0.02-0.1-0.12-0.14-0.25-0.1
		c-0.11,0.03-0.21,0.08-0.31,0.11c-0.35-0.03-0.7,0-1.05-0.1c0.01,0.14,0.2,0.29,0.02,0.35c-0.24,0.09-0.26,0.26-0.42,0.37
		c0.01,0.01,0.03,0.02,0.04,0.03c0,0,0,0,0,0c-0.01-0.01-0.03-0.02-0.04-0.03C24.32,1.96,24.27,1.98,24.23,2
		c0.02,0.01,0.04,0.01,0.06,0.02l0,0C24.27,2.01,24.25,2,24.23,2c-0.2,0-0.41,0.06-0.61-0.01c-0.1-0.1-0.25-0.14-0.41-0.15
		c-0.53-0.05-1.05-0.08-1.55,0.07c-0.44-0.05-0.82,0.05-1.2,0.16C20.08,2,19.9,2.24,19.6,2.3c-0.26,0.18-0.52,0.35-0.78,0.53
		c-0.14,0.11-0.37,0.13-0.49,0.28c-0.38,0.47-0.85,0.91-1.02,1.46c-0.01,0.03-0.03,0.08-0.07,0.09c-0.2,0.08-0.19,0.2-0.2,0.33
		c-0.01,0.13-0.09,0.24-0.18,0.36c-0.25,0-0.27-0.13-0.34-0.24c-0.09-0.14-0.22-0.25-0.48-0.23c-0.01-0.05-0.04-0.1-0.12-0.13
		c0,0,0,0,0,0c-0.04-0.18-0.17-0.28-0.46-0.27c-0.14,0-0.29,0.01-0.42-0.05c-0.49-0.2-1.01-0.12-1.52-0.14
		c-0.14-0.01-0.24,0.03-0.31,0.11c-0.04,0-0.07,0.01-0.09,0.02c-0.06,0-0.1,0.02-0.13,0.05c-0.13-0.05-0.03-0.16-0.15-0.22
		c-0.06,0.11-0.35,0.09-0.36,0.07c0,0-0.77-0.03-0.78,0.32v0c-0.01,0.02-0.02,0.04-0.03,0.06c-0.28,0-0.53-0.04-0.77,0.16
		c-0.15,0.12-0.32,0.21-0.34,0.38c-0.02,0.15-0.07,0.3-0.11,0.44c-0.17-0.01-0.18-0.09-0.2-0.17C10.22,5.3,10.22,5.07,9.95,4.9
		C9.7,4.68,9.66,4.68,9.39,4.84C9.3,4.89,9.3,5.02,9.1,4.99C9.08,4.94,9.06,4.87,8.95,4.93C8.87,4.98,8.79,4.99,8.68,4.97
		C8.67,4.9,8.65,4.82,8.52,4.81C8.43,4.8,8.41,4.88,8.37,4.93c-0.03,0.03-0.04,0.06-0.06,0.1c0,0,0,0,0,0
		C8.17,5.06,8.07,5.1,7.99,5.19C7.64,5.62,7.41,6.07,7.28,6.54C7.15,7.02,7.04,7.5,6.92,7.97C6.88,8.12,6.77,8.26,6.81,8.42
		c-0.3,0.66-0.4,1.35-0.52,2.04c-0.12,0.64-0.23,1.28-0.32,1.93c-0.07,0.48-0.09,0.97-0.13,1.46l-0.02,0.02c0,0,0.01,0.03,0.01,0.03
		C5.71,14.26,5.73,14.63,5.71,15c-0.08,1.08-0.15,2.16-0.22,3.25c-0.07,1.02-0.03,2.05-0.03,3.08c-0.04,0.09-0.05,0.18-0.02,0.28
		c-0.06,0.54-0.07,1.07-0.06,1.61c-0.06,0.33-0.06,0.65-0.03,0.98c-0.03,0.87-0.08,1.74-0.09,2.61c-0.01,0.7-0.07,1.39,0.03,2.09
		c-0.07,0.44-0.15,0.87-0.11,1.32c-0.06,0.42-0.07,0.84-0.06,1.27c0,0,0,0,0,0c-0.01,0.05-0.02,0.09-0.02,0.14
		C5.01,34,4.93,36.39,4.86,38.78c0,0.09-0.03,0.19,0.05,0.27c-0.01,0.06-0.02,0.11-0.02,0.17c-0.01,1.72-0.02,3.45-0.03,5.17
		c0,0.09-0.02,0.19,0.06,0.27c0,0.06,0,0.13,0,0.19c0,0.05,0,0.09,0,0.14c-0.03,0.07-0.04,0.14-0.01,0.21
		C4.89,46,4.87,46.8,4.84,47.59c-0.05,1.45-0.11,2.9-0.16,4.35c-0.05,0.56-0.08,1.11-0.07,1.67c0.18-0.11,0.09-0.27,0.13-0.4
		c0.03,0.01,0.07,0.01,0.1,0c0.04,0.43,0.05,0.87,0.05,1.3L4.68,54.5c0-0.11,0.01-0.22,0.01-0.32c0-0.16,0.1-0.33-0.08-0.49
		c-0.01,0.16-0.01,0.32-0.02,0.48c-0.01,0.09-0.02,0.19-0.02,0.28c0,0.01,0,0.03,0,0.04l-0.29-0.01c0.05,0.6,0.13,1.21,0.16,1.81
		c0.02,0.54,0.04,0.54-0.64,1.49c0.08,1.13,0.14,2.35,0.27,3.57c0.07,0.66-0.33,0.96-0.63,1.41c0.12,1.61,0.24,3.24,0.35,4.89
		c-0.23,0.33-0.45,0.64-0.69,0.98c0.1,1.34,0.2,2.7,0.3,4.07c-0.23,0.32-0.46,0.64-0.68,0.95c0.11,1.51,0.22,3.02,0.32,4.53
		c0.12-0.01,0.15,0.68,0,0c-0.28-0.08-0.56,0.03-0.59,0.34c-0.14,1.5,0.11,3,0.22,4.5c0.05,0.65-0.3,0.98-0.63,1.43
		c0.1,1.33,0.2,2.7,0.3,4.06c-0.23,0.34-0.45,0.65-0.69,1c0.06,0.79,0.12,1.61,0.18,2.42c-0.23,0.33-0.46,0.65-0.69,0.98
		c0.1,1.36,0.2,2.73,0.29,4.06c-0.24,0.35-0.46,0.67-0.69,1c0.08,1.09,0.16,2.18,0.23,3.23c-0.11,0.15-0.2,0.24-0.27,0.35
		c-0.52,0.8-0.51,0.98,0.09,1.7c0.34,0.41,0.35,0.41,0.01,0.88c-0.08,0.11-0.16,0.21-0.27,0.35c0.12,1.61,0.24,3.25,0.36,4.9
		c-0.23,0.33-0.46,0.65-0.69,0.99c0.16,2.17,0.32,4.37,0.48,6.57c-0.23,0.32-0.46,0.64-0.67,0.93c0.42,5.8,0.84,11.58,1.26,17.33
		c0.34,0.4,0.81,0.62,0.84,1.3c0.04,1.23,0.16,2.46,0.25,3.6c0.44,0.43,0.89,0.71,0.84,1.37c-0.06,0.74,0.19,1.32,0.77,1.72
		c0.2,0.14,0.39,0.32,0.55,0.45c0.76-0.06,1.5-0.11,2.2-0.16c0.35-0.41,0.57-0.9,1.17-0.9c0.85,0,1.7-0.11,2.46-0.17
		c0.38-0.54,0.66-0.97,1.24-0.93c0.37,0.02,0.74-0.09,1.11-0.06c0.59,0.04,0.83-0.45,1.18-0.89c0.94-0.07,1.92-0.14,2.89-0.22
		c0.27-0.31,0.51-0.6,0.76-0.89c0.17,0.15,0.36,0.31,0.55,0.47c0.41,0.37,0.87,0.3,1.26-0.13c0.17-0.19,0.34-0.37,0.54-0.59
		c0.69-0.05,1.43-0.11,2.06-0.15c0.02-0.02,0.03-0.03,0.04-0.05c0.27,0.27,0.53,0.55,0.84,0.74c0.37,0.23,0.92,0.11,1.2,0.58
		c0.61-0.03,1.03,0.34,1.43,0.75c0.13,0.14,0.28,0.26,0.44,0.4c0.18-0.01,0.37-0.02,0.54-0.03c0.23,0.19,0.45,0.38,0.67,0.57
		c0.18-0.01,0.37-0.02,0.55-0.03c0.29,0.27,0.6,0.51,0.86,0.8c0.39,0.44,1.11,0.17,1.43,0.75c0.28,0.01,0.55,0.04,0.83,0.04
		c0.29,0,0.57-0.03,0.86-0.05c0.52,0.26,0.87,0.73,1.31,1.09c0.19-0.2,0.39-0.41,0.57-0.6c0.39-0.02,0.76-0.05,1.12-0.07
		c0.24,0.2,0.45,0.38,0.63,0.52c0.43-0.03,0.8-0.05,1.15-0.07c0.09-0.1,0.21-0.18,0.2-0.25c-0.03-0.69-0.07-1.39-0.11-2.07
		c0.31,0,0.63,0.01,0.94,0.01c0.21,0.21,0.41,0.41,0.62,0.62c0.38,0.01,0.75,0.01,1.09,0.02c0.23,0.2,0.42,0.38,0.61,0.55
		c0.29-0.31,0.52-0.62,0.97-0.55c0.28,0.04,0.57,0.02,0.86,0.02c0.64,0,0.69-0.06,0.74-0.89c0.34-0.34,0.68-0.69,1.02-1.03
		c0.16-0.17,0.19-0.56,0.04-0.8c-0.11-0.16-0.26-0.29-0.4-0.43c0.14-0.48,0.59-0.68,0.89-1.14c0.03,0.77,0.05,1.53,0.08,2.3
		c0.21,0.22,0.4,0.43,0.61,0.65c0.01,0.39,0.03,0.78,0.04,1.16c0.51,0.34,0.74,0.85,0.67,1.42c0.78-0.03,1.35-0.05,1.92-0.07
		c0.2-0.21,0.4-0.41,0.59-0.61c0.29,0.01,0.57-0.08,0.79,0.21c0.1,0.13,0.27,0.19,0.4,0.29c0.14-0.15,0.27-0.3,0.4-0.44
		c0.63-0.24,1.29-0.11,1.94-0.18c0.23,0.3,0.48,0.64,0.7,0.93c0.03,0.06,0.05,0.13,0.12,0.17c0.01,0.01,0.01,0,0.02,0
		c0.21,0.28,0.36,0.48,0.36,0.48h0.44c0.01,0.02,0.02,0.04,0.02,0.06c0,0.02,0.02,0.06,0.08,0.03c0.02-0.03,0.02-0.06,0.03-0.09
		h0.09c0,0.04-0.01,0.09,0.05,0.12c0.01-0.01,0.02-0.02,0.04-0.03c0,0,0.01,0,0.01,0c0.03-0.03,0.04-0.07,0.05-0.1h0.28
		c0,0.01,0.01,0.02,0.01,0.03c0.01,0,0.01,0,0.02-0.01l0-0.03h0.11c0.03,0.07,0.08,0.13,0.12,0.2l-0.01-0.13
		c0-0.02,0-0.04,0.01-0.06h0.54l2.3,0.07c0,0,0.2-0.22,0.38-0.36c0.08-0.02,0.14-0.05,0.18-0.1c0.06,0,0.12,0.02,0.17-0.02
		c0.16,0.01,0.28-0.04,0.4-0.09c0.06-0.01,0.11-0.03,0.16-0.05c0.02,0.01,0.03,0.02,0.06-0.01c0.01-0.01,0.01-0.01,0.02-0.02
		c0.02-0.01,0.05-0.02,0.07-0.02c0.18,0.03,0.26-0.01,0.29-0.12c0.03-0.12,0.06-0.25,0.08-0.37c0.12-0.25,0.21-0.53,0.27-0.69
		c0.11-0.29,0.53,0.26,0.53,0.26l0.32,0.65c0,0,0.06,0.67,0.27,0.78c0.16,0.09,0.73,0.42,0.99,0.57c0,0.03,0.03,0.05,0.06,0.07l0,0
		c0.01,0.05,0.05,0.06,0.08,0.01l0.82,0.69c0,0,0.83-0.27,1.11-0.37c0.15-0.05,0.41-0.36,0.62-0.63c0.16-0.14,0.24-0.3,0.33-0.46
		c0,0,0.17-0.2,0.48-0.42c0.04,0.01,0.09,0.03,0.14,0.04c0.2,0.04,0.41,0.05,0.61,0.1c0.11,0.03,0.22,0.05,0.34,0.05
		c0.13,0.01,0.26,0.02,0.39,0.04c0.22,0.02,0.44,0.05,0.68,0.02c0.01,0,0.02,0,0.03,0c0.15,0.05,0.31,0.02,0.47,0
		c0.02,0,0.03,0,0.05,0c0.11,0.09,0.2,0.2,0.39,0.24c0.01,0.02,0.02,0.04,0.06,0.05l0,0c0.01,0.01,0.02,0.02,0.03,0.03
		c0.06,0.04,0.04,0.12,0.11,0.15c0.07,0.04,0.19-0.02,0.28,0c0.11,0.02,0.21,0.04,0.27-0.06c0.01-0.02,0.06-0.02,0.09-0.03
		c0.12-0.02,0.24-0.03,0.37-0.02c0.05,0.02,0.03,0.06,0.09,0.07c0.04,0.03,0.13,0.04,0.14,0.09c-0.01,0.06,0,0.11,0.13,0.08
		c0.07-0.02,0.1,0.01,0.14,0.04c-0.01,0.05-0.02,0.1-0.03,0.15c0,0.02-0.01,0.05,0.03,0.06c0.04,0.01,0.07-0.01,0.09-0.03
		c0.04-0.04,0.09-0.07,0.12-0.12c0.06-0.08,0.12-0.16,0.18-0.24c0.05-0.03,0.08-0.07,0.1-0.12c0.08-0.06-0.01-0.11,0.03-0.17
		c0.04-0.02,0.03-0.05,0.05-0.07c0.07-0.11,0.13-0.12,0.28-0.08c0.04,0.01,0.08,0.03,0.14,0.01c0.03-0.07-0.04-0.14,0.05-0.21
		c0,0-0.01-0.01-0.01-0.01c0,0,0,0,0,0l0.01,0.01c0.09-0.01,0.19-0.02,0.28-0.04c0,0,0,0,0,0c0,0,0,0,0,0
		c0.11,0.03,0.24,0.02,0.35-0.01c0.15-0.04,0.3-0.04,0.45-0.04c0.04,0.01,0.07,0.03,0.11,0.03c0.01,0,0.02,0,0.04,0
		c0.03,0.35,0.05,0.7,0.08,1.05c-0.4,0.34,2.89,0.6,3.24,0.57c0.27-0.31,0.45-0.67,0.91-0.64c0.28,0.01,0.57-0.03,0.85-0.06
		c0.41-0.04,0.41-0.04,0.9-0.58c0.54-0.2,1.11-0.14,1.67-0.21c0.14-0.12,0.28-0.24,0.41-0.37c0.35-0.35,0.65-0.41,0.97-0.17
		c0.15,0.12,0.29,0.26,0.44,0.39c0.75-0.06,1.51-0.12,2.27-0.18c0.19-0.21,0.38-0.42,0.58-0.65c0.18-0.01,0.37-0.03,0.54-0.04
		c0.26-0.32,0.53-0.64,0.81-0.99c0,0,0,0,0,0c0.1-0.03,0.21-0.02,0.29-0.1c0.05-0.05,0.15-0.06,0.24-0.08
		c0.02,0,0.05-0.01,0.08-0.02c0.18-0.03,0.35-0.08,0.54-0.09c0.14-0.01,0.14-0.01,0.17,0.1c0,0.01,0,0.03,0.01,0.03
		c0.09,0.01,0.14,0.03,0.13,0.1c0,0.04,0.05,0.05,0.1,0.03c0.04-0.02,0.08-0.04,0.11-0.06c0.13-0.01,0.27-0.04,0.41-0.02
		c-0.01-0.05-0.09-0.1-0.03-0.13c0.09-0.05,0.08-0.11,0.14-0.17c-0.01,0-0.01-0.01-0.02-0.01c0,0,0,0,0,0
		c0.01,0,0.01,0.01,0.02,0.01c0.02-0.01,0.03-0.02,0.05-0.03c-0.01,0-0.02,0-0.02-0.01l0,0c0,0,0.01,0.01,0.02,0.01
		c0.08-0.01,0.15-0.04,0.23-0.03c0.04,0.03,0.1,0.04,0.16,0.04c0.2-0.01,0.41-0.03,0.59-0.11c0.17,0,0.31-0.06,0.45-0.13
		c0.15,0,0.21-0.1,0.32-0.14c0.04-0.04,0.08-0.08,0.12-0.11c0.14,0.14,0.29,0.29,0.46,0.47c1.1-0.05,2.32-0.13,3.55-0.14
		c0.46-0.01,0.63-0.41,0.91-0.72c0.93-0.04,1.87-0.08,2.81-0.12c0.34-0.38,0.59-0.92,1.17-0.78c0.05,0.01,0.12-0.16,0.19-0.24
		c0.13-0.16,0.26-0.31,0.42-0.49c0.36-0.02,0.73-0.03,1.09-0.05c0.28-0.32,0.45-0.75,0.91-0.72c0.46,0.03,0.93-0.03,1.34-0.05
		c0.3-0.42,0.52-0.81,0.97-0.74c0.09,0.02,0.19,0,0.28-0.01c0.36-0.06,0.75,0.08,1.09-0.17c0.26-0.85,1.28-0.4,1.53-1.31
		c0.37-0.02,0.75-0.03,1.13-0.05c0.62-0.86,1.24-1.72,1.89-2.61c-0.18-0.59,0.3-0.91,0.56-1.38c-0.02-0.44-0.04-0.89-0.06-1.34
		c0.14-0.18,0.27-0.35,0.39-0.52c0.04-0.09,0.13-0.19,0.13-0.28c-0.02-0.67-0.05-1.33-0.08-1.93c0.02-0.02,0.03-0.04,0.06-0.06
		c0.14,0.06,0.09,0.16,0.19,0.22l0,0c0.01,0.09,0,0.18,0.02,0.27c0.03,0.13,0.21,0.13,0.36,0.16c0.18,0.03,0.27-0.01,0.28-0.12
		c0.16-0.05,0.22,0.11,0.38,0.09c0.09-0.11,0.03-0.24,0.07-0.36c0.14-0.09,0.28-0.17,0.42,0.01c0.04,0.06,0.11,0.09,0.19,0.1
		c0,0,0,0,0,0c0.04,0.05,0.11,0.11,0.19,0.08c0.05-0.02,0.05-0.1,0.07-0.15c0.14-0.06,0.24-0.13,0.23-0.25
		c0.24-0.13,0.46-0.26,0.75-0.34c0.08-0.06,0.14-0.12,0.13-0.2c0.13-0.08,0.12-0.19,0.14-0.29c0.06-0.3,0.11-0.6,0.17-0.89
		c0.19-0.88,0.38-1.76,0.47-2.65c0.1-0.67,0.26-1.34,0.29-2.02c0.03-0.01,0.04-0.03,0.01-0.05c0.03-0.06,0.04-0.13,0.05-0.2
		c0.05-0.22,0.07-0.43,0.07-0.65c0.13-1.17,0.18-2.35,0.21-3.53c0-0.09,0.04-0.18-0.04-0.27c0.03-0.06,0.03-0.12,0-0.19
		c0.04-0.54,0.08-1.07,0.02-1.62c0.01-0.3,0.01-0.61,0.05-0.91c0.09-0.83,0.03-1.66,0.06-2.48c0-0.04-0.03-0.09-0.05-0.14
		c0.01-0.1,0.04-0.21,0.04-0.31c0.05-1.89-0.03-3.78-0.09-5.67c-0.02-0.52,0.01-1.05-0.1-1.57c-0.07-0.04-0.07-0.09-0.07-0.14
		c0.02,0.05,0.04,0.09,0.07,0.14c0.01-0.05,0.02-0.09,0.02-0.14c-0.06-1.66-0.12-3.33-0.18-4.99c0.02-0.15,0.07-0.3-0.07-0.44
		c0,0,0,0,0,0c0-0.1,0.01-0.2,0.01-0.31c0.11-0.1,0.1-0.2,0.01-0.31c0.01-0.11,0.03-0.23-0.02-0.34c0.02-0.16,0.04-0.33-0.04-0.49
		c-0.01-0.02-0.02-0.04-0.03-0.07c0,0,0,0,0-0.01c0,0,0,0,0,0c-0.07-0.62,0.14-1.23,0.04-1.87c-0.18,0.08-0.09,0.18-0.11,0.26
		c-0.29-0.08-0.18-0.26-0.13-0.35c0.1-0.18,0.04-0.33-0.05-0.49c0,0,0,0,0,0c0,0,0,0,0,0c0,0,0,0,0,0c0.01-0.12,0.09-0.24-0.09-0.34
		c-0.14,0.08-0.1,0.16-0.11,0.24c-0.04,0.76,0.01,1.52-0.18,2.26c-0.02,0.07,0.02,0.14,0.04,0.21c0.04,0.24,0.18,0.49,0.11,0.73
		c-0.08,0.24-0.08,0.48-0.1,0.73c0.08,0.34,0.03,0.67-0.04,1c-0.02-0.02-0.06-0.05-0.1-0.07c-0.03,0.06,0.04,0.23-0.21,0.1
		c-0.02-0.39,0.08-0.78-0.1-1.17c0.01-0.4,0.03-0.79,0.04-1.19c0.01-0.05,0.01-0.09,0.02-0.14c0-0.07,0-0.14,0-0.21
		c-0.02,0-0.03-0.01-0.05-0.01c0-0.02,0-0.03,0-0.05c-0.01-0.17,0.05-0.33-0.02-0.5l0,0c0.02,0,0.05,0,0.07-0.01
		c0.01-0.21,0.02-0.42,0.03-0.62c-0.05-0.07-0.06-0.15,0.01-0.21c0-0.14,0.01-0.27,0.01-0.41c-0.06-0.06-0.12-0.11-0.2-0.15l0,0
		c-0.11-0.09-0.07-0.21-0.2-0.3c-0.03-0.54-0.08-1.07-0.04-1.61c0.01-0.17,0.06-0.35-0.09-0.51c-0.02-0.55-0.04-1.11-0.06-1.66
		c0.01-0.44,0.02-0.89,0.03-1.33c0.21-0.81,0.17-1.63,0.22-2.45c0.1-0.04,0.13-0.15,0.29-0.13c0.01,0.07,0.02,0.14,0.03,0.21
		c-0.03,0.31-0.14,0.61-0.16,0.92c-0.04,0.65,0.1,1.3,0.05,1.94c-0.01,0.19-0.01,0.37-0.02,0.56c0.03,0.19-0.13,0.38,0.09,0.56
		c0.01-0.19,0.01-0.37,0.02-0.56c0.01-0.16,0.02-0.32,0.03-0.49c0-0.02-0.01-0.04-0.01-0.06c0.02,0,0.04-0.01,0.06-0.03
		c0.05-0.05,0.07-0.11,0.06-0.17c-0.08-0.23-0.05-0.46-0.01-0.69c0.01,0,0.03-0.01,0.04-0.02c0.06-0.04,0.16-0.02,0.21-0.06
		c0.02-0.1,0.03-0.21,0.08-0.31c0.07-0.13,0.11-0.27-0.03-0.4c0.05-0.21-0.19-0.41-0.12-0.62c-0.02-0.12-0.05-0.24-0.07-0.36
		c0,0,0,0,0,0c0-0.03,0-0.05,0-0.08c0.02-0.09,0.06-0.18,0.06-0.27c0-0.29,0.02-0.59-0.13-0.87c-0.02-0.03-0.03-0.06-0.09-0.03
		c-0.02,0.01-0.03,0.04-0.04,0.06c0,0,0,0,0,0c0,0,0,0,0,0c-0.08-0.1-0.17-0.17-0.38-0.13c-0.22,0.04-0.15,0.15-0.13,0.22
		c0.11,0.34,0.05,0.67-0.05,1c-0.16,0.11-0.09,0.26-0.12,0.39c-0.02,0.12,0.05,0.26-0.09,0.36c-0.04-0.1-0.08-0.19-0.12-0.29
		c0.02-0.72,0.04-1.44,0.06-2.16l0.09-1.53c0.14-0.1,0.03-0.26,0.17-0.35c0.2-0.14,0.19-0.31,0.11-0.49
		c-0.05-0.12-0.06-0.24-0.02-0.34c0.11-0.25,0.1-0.5,0.12-0.75c0-0.06,0.03-0.11,0.11-0.15l-0.02,0.55
		c0.27-0.25,0.22-0.47,0.24-0.68c0.09,0,0.18-0.01,0.14-0.1c-0.06-0.16-0.02-0.32-0.01-0.48c0.01-0.25,0.02-0.49,0.03-0.74
		c-0.12,0.08-0.21,0.16-0.21,0.26c0,0,0,0,0,0c-0.02,0.11-0.03,0.23-0.23,0.27c-0.01-0.47,0.04-0.95,0.16-1.41
		c-0.2-0.02-0.21,0.17-0.4,0.08c0,0,0,0,0,0c-0.01-0.1-0.03-0.2-0.04-0.29c0.07-1.36,0.14-2.71,0.2-4.07
		c0.03-0.81,0.05-1.62,0.07-2.44c0.08-0.98,0.09-1.96,0.04-2.95c0.05-0.38,0.12-0.76,0-1.14c0,0,0,0,0,0
		c0.02-0.72,0.03-1.43,0.05-2.15c0-0.1,0.04-0.21-0.07-0.3v0c0.01-0.02,0.01-0.04-0.01-0.05c0.01-0.36,0.02-0.72,0.03-1.07
		c0.02-0.53,0.03-1.06-0.05-1.59c0.04-0.9,0.07-1.79,0.11-2.69c0.09-2.08,0.18-4.16,0.26-6.24c0.03-0.9,0.04-1.79,0.06-2.69
		c0.02-0.57,0.04-1.14,0.05-1.71c0-0.25,0.07-0.51-0.06-0.76c0.01-0.02,0.01-0.04,0-0.05c0.07-0.53,0.04-1.07,0.02-1.61
		c-0.03-1.06-0.1-2.12-0.17-3.18c-0.04-0.7-0.11-1.4-0.16-2.1v0c0,0,0,0,0,0c0.01-0.07,0.02-0.14,0.03-0.2h0
		c0.13-0.07,0.1-0.17,0.11-0.26c0.03-0.31,0.03-0.62,0.12-0.93c0.09-0.31,0.04-0.65,0.05-0.99c-0.3,0.07-0.1,0.33-0.43,0.35
		c-0.07-0.62-0.1-1.23-0.21-1.85c-0.22-1.27-0.27-2.54-0.48-3.8c-0.08-0.45-0.09-0.91-0.24-1.35c0.02-0.6-0.16-1.2-0.22-1.8
		c-0.05-0.45-0.13-0.9-0.2-1.35c0.13-0.12,0.01-0.25-0.02-0.37c-0.1-0.51-0.1-1.02-0.25-1.53c-0.01-0.21,0.08-0.43-0.09-0.64
		c0-0.1,0.02-0.21,0-0.31c-0.1-0.65-0.21-1.3-0.33-1.95c-0.06-0.35-0.07-0.71-0.17-1.06c0-0.02-0.01-0.05-0.02-0.08
		c0.02-0.16-0.02-0.32-0.04-0.49c-0.11-0.77-0.21-1.53-0.3-2.3c-0.06-0.47-0.11-0.93-0.12-1.4c-0.01-0.62-0.15-1.23-0.07-1.85
		c0.26-0.3,0.23-0.64,0.24-0.97c0.01-0.2,0.03-0.4,0.03-0.59c0.01-0.38-0.07-0.77,0.08-1.15c0,0,0,0,0,0c0-0.03,0.01-0.06,0.01-0.09
		c0,0,0,0,0,0c0.07-0.03,0.15-0.05,0.24-0.04c-0.02,0.08,0.08,0.13,0.13,0.2 M20.48,54.37c-0.01,0.01-0.01,0.01-0.01,0.02
		c-0.04-0.21,0.03-0.43-0.04-0.64c-0.01-0.03-0.03-0.07-0.05-0.1c0.01,0,0.03,0.01,0.04,0.01c0.01,0.03,0.01,0.05,0.02,0.08
		C20.54,53.95,20.48,54.16,20.48,54.37z M113.78,106.18c0.01,0.01,0.09,0.02,0,0.06c-0.09,0.04-0.15,0.06-0.19,0.09
		c0.04-0.19,0.08-0.39,0.1-0.58C113.68,105.88,113.7,106.03,113.78,106.18z M113.58,105.04c0.07-0.03,0.1-0.08,0.09-0.14l0,0
		c0,0,0-0.01,0-0.01c0.01,0,0.02,0.01,0.03,0.01c0.02,0.02,0.04,0.04,0.06,0.06c0,0,0,0.01,0,0.01c0.01,0.21-0.04,0.42-0.07,0.63
		c0-0.1,0-0.2-0.01-0.29c-0.03-0.08-0.06-0.15-0.1-0.22C113.58,105.07,113.58,105.05,113.58,105.04z"/>
	<path d="M109.58,7.78c0.05,0.06,0.09,0.13,0.23,0.13c0.12,0,0.21-0.05,0.22-0.12c0.02-0.21,0.13-0.42-0.06-0.63
		c-0.02,0.05,0.02,0.12-0.12,0.17c-0.21-0.21,0.07-0.5-0.3-0.73c-0.01,0.28-0.02,0.51-0.03,0.74
		C109.55,7.48,109.47,7.63,109.58,7.78z"/>
	<path d="M113.7,93.05c0.16-0.21,0.5-0.35,0.13-0.62c-0.16-0.12-0.14-0.28-0.06-0.43c0.07-0.12,0.12-0.25-0.03-0.4
		C113.55,91.89,113.52,92.76,113.7,93.05z"/>
	<path d="M113.78,90.18c-0.16,0.08-0.16,0.17-0.02,0.27C113.8,90.36,113.88,90.28,113.78,90.18z"/>
</g>
<path class="st0" d="M112.93,78.8c0.02,0.28,0.41,0.52,0.65,0.73c0.02,0.02,0.31-0.32,0.31-0.5c0.01-0.38,0.02-0.77,0.03-1.16
	l-1.05-0.04C112.89,78.15,112.9,78.47,112.93,78.8z"/>
<path class="st1" d="M80.92,73.37c-2.65-0.29-5.3-0.46-7.98-0.11c-1.42,0.18-2.87,0.17-4.31,0.17c-2.99,0.01-5.99-0.04-8.98-0.06
	c-0.22,0-0.44,0.05-0.66,0.09c-5.55,0.93-11.25,0.85-16.79,1.81c-1.77,0.31-3.54,0.21-5.31,0.08c-1-0.08-2.04-0.32-2.99-0.17
	c-2.02,0.32-4,0.05-5.99-0.1c-1.5-0.11-2.86-0.28-3.87,1.01c-0.19,0.25-0.82,0.22-1.22,0.36c-1.19,0.43-1.71,1.25-1.41,2.33
	c0.21,0.76,0.54,1.47,1.36,1.96c0.75,0.44,1.27,1.07,1.49,1.89c0.4,1.49,1.5,2.64,2.7,3.66c2.65,2.27,5.05,4.71,7.23,7.32
	c1.25,1.5,2.35,3.1,3.66,4.56c2.63,2.93,5.34,5.8,8.03,8.69c0.35,0.38,0.71,0.78,1.14,1.08c2.04,1.41,3.65,3.2,5.11,5.04
	c1.53,1.94,3.43,3.6,5.01,5.49c0.9,1.08,2.19,1.65,3.51,2.16c1.44,0.55,2.3,0.26,3-0.96c1.36-2.35,2.71-4.7,4.46-6.86
	c1.1-1.35,2.16-2.72,3.24-4.08c0.76-0.96,1.57-1.9,2.3-2.87c1.78-2.36,3.63-4.67,4.98-7.28c1.1-2.13,2.43-4.17,3.79-6.18
	c1.59-2.35,3.29-4.65,5.01-6.93c1.24-1.65,2.34-3.32,2.42-5.26c0.75-0.73,1.91-0.92,2.14-1.92c0.27-1.15,0.55-2.32,0.15-3.48
	c-0.38-1.1-1.76-1.09-2.65-1.63c-0.09-0.05-0.21-0.07-0.57-0.18C86.22,73.43,83.59,73.67,80.92,73.37z M81.42,80.27
	c-0.29,1.29-0.96,2.28-1.59,3.3c-0.69,1.11-1.4,2.21-2.01,3.36c-0.99,1.87-2.24,3.59-3.65,5.23c-0.6,0.69-1.16,1.43-1.61,2.21
	c-1,1.74-1.92,3.52-2.86,5.28c-0.52,0.97-1.2,1.81-2.02,2.64c-1.3,1.31-2.44,2.8-3.33,4.35c-1.03,1.79-2.66,3.04-4.36,4.82
	c-0.83-0.86-1.4-1.44-1.94-2.03c-1.88-2.07-3.57-4.28-6-5.91c-0.35-0.23-0.61-0.57-0.88-0.88c-3.79-4.36-7.89-8.51-11.81-12.78
	c-1.26-1.37-2.63-2.66-3.95-3.99c-0.22-0.22-0.44-0.43-0.64-0.66c-0.67-0.78-1.24-1.64-2-2.34c-0.76-0.7-1.69-1.26-2.56-1.9
	c0.01-0.49,0.43-0.65,0.86-0.52c1.72,0.52,3.45,0.68,5.25,0.39c0.43-0.07,0.89-0.02,1.33,0.02c3.99,0.4,7.97,0.07,11.95-0.04
	c4.21-0.12,8.4-0.32,12.6-0.63c0.55-0.04,1.11,0,1.67,0.04c3.22,0.22,6.41,0.02,9.63-0.11c2.21-0.09,4.43-0.01,6.64-0.14
	C80.51,79.95,80.93,80.16,81.42,80.27z"/>
<path class="st2" d="M64.46,61.86c-2.5,0.6-5.06,0.09-7.61,0.42c-2.5,0.32-5.1-0.02-7.64,0.15c-2.11,0.14-4.24-0.09-6.31,0.19
	c-1.69,0.22-3.32,0.15-4.98,0.07c-0.78-0.03-1.57-0.17-2.33-0.08c-3.19,0.39-6.41,0.16-9.62,0.33c-1.91,0.1-3.48,0.47-4.81,2.04
	c0.3,0.49,0.47,0.86,0.74,1.16c0.27,0.3,0.62,0.56,0.98,0.78c0.91,0.54,5.31,1.73,6.35,1.53c1.78-0.34,3.58,0.08,5.31-0.17
	c2.24-0.33,4.43-0.14,6.65-0.03c0.66,0.03,1.37,0.15,1.99,0.01c1.34-0.3,2.66-0.12,3.99-0.05c2.11,0.12,4.22,0.29,6.33,0.39
	c0.99,0.05,1.99-0.02,2.98-0.05c2.44-0.07,4.87-0.22,7.31-0.19c2.88,0.04,5.74,0.27,8.65,0.09c3.97-0.25,7.97-0.13,11.95-0.38
	c1.77-0.11,3.54-0.14,5.31-0.22c0.22-0.01,0.43-0.07,0.65-0.12c1.02-0.21,1.35-1.06,0.68-1.78c-2.83-3.07-6.68-4.19-10.95-4.03
	c-2.01,0.07-4,0.11-5.97-0.1C70.87,61.48,67.67,62.04,64.46,61.86z"/>
<path class="st3" d="M62.49,50.77c-1.25-0.08-2.43,0.03-3.61,0.4c-0.61,0.19-1.3,0.34-1.94,0.31c-2.66-0.12-5.31-0.43-7.98-0.04
	c-0.32,0.05-0.67-0.02-1-0.08c-3.32-0.53-6.67-0.15-9.97,0.05c-2.7,0.16-5.32,0.04-7.97-0.16c-2.22-0.17-4.44-0.35-6.65-0.57
	c-1.19-0.12-2.17,0.17-3.16,1.09c0.55,1.2,1.47,1.88,2.48,2.52c2.03,1.3,4.34,1.92,6.76,2.31c2.45,0.39,4.9,0.22,7.29-0.23
	c2.53-0.48,5.04-0.62,7.61-0.42c1.88,0.15,3.8,0.39,5.67,0.26c3.55-0.25,7.09-0.04,10.63-0.2c1.33-0.06,2.66-0.18,3.98-0.12
	c3.22,0.16,6.43-0.4,9.65,0.03c2.74,0.37,5.53,0.3,8.24,1.04c1.36,0.37,2.86,0.38,4.31,0.41c2.44,0.04,4.26-1.36,4.35-3.22
	c0.06-1.17-0.77-1.99-2.04-1.73c-1.61,0.32-3.05,0.08-4.55-0.4c-1.35-0.43-2.77-0.72-4.19-0.94c-1.31-0.2-2.7-0.48-3.98-0.29
	c-2.36,0.35-4.66,0.02-6.98-0.08c-1-0.04-2.04-0.21-2.99-0.02C65.12,50.94,63.81,50.86,62.49,50.77z"/>
<path class="st4" d="M60.6,40.62c-1.1-0.06-2.2,0.05-3.3,0.07c-0.77,0.01-1.58,0.14-2.32-0.01c-2.13-0.45-4.16,0.37-6.26,0.3
	c-0.28-0.01-0.62,0.22-0.85,0.41c-1,0.82-0.94,2.71,0.11,3.41c0.9,0.61,1.91,0.94,3.06,1.01c2.66,0.16,5.31,0.35,7.96,0.58
	c2.54,0.22,5.07,0.52,7.52-0.45c0.1-0.04,0.22-0.03,0.33-0.02c1.43,0.06,2.23-0.64,2.79-1.71c0.66-1.26,0.54-2.3-0.63-3.16
	c-0.66-0.49-1.48-0.81-2.5-1.35C64.82,41.22,62.69,40.73,60.6,40.62z"/>
<path class="st5" d="M61.25,21.45c-0.21,0.03-1.29,0.1-2.32,0.33c-1.64,0.37-3.27,0.81-4.88,1.29c-1.46,0.44-2.9,0.95-4.32,1.48
	c-1.61,0.59-2.47,1.81-2.35,3.23c0.18,2.04,0.69,4.09,3.23,5.04c0.57,0.21,1.08,0.52,1.64,0.76c4.2,1.81,8.47,2.39,12.93,0.67
	c3.91-1.51,5.69-5.41,3.96-8.85C67.8,22.71,65.29,21.64,61.25,21.45z M64.96,30.79c-0.38,0.36-1.06,0.64-1.62,0.66
	c-2.16,0.09-4.32,0.01-6.62-0.63c-0.3-0.87-0.76-1.74-0.89-2.65c-0.25-1.72,0.4-2.38,2.44-2.81c1.51-0.31,3.01-0.65,4.58-0.4
	c1.56,0.25,2.5,1.15,2.9,2.37C66.15,28.54,66,29.82,64.96,30.79z"/>
<path class="st2" d="M66.09,95.77c-0.59,0.95-1.29,1.87-2.07,2.78c-0.52,0.6-0.89,1.22-1.17,1.86c-0.14,0.31-0.34,0.6-0.58,0.89
	c-0.58,0.67-1.49,1.21-2.21,1.83c-0.13,0.11-0.5,0.13-0.74,0.04c-0.7-0.26-1.39-0.51-1.89-0.91c-0.82-0.66-1.69-1.29-2.51-1.95
	c-0.97-0.78-1.94-1.57-2.63-2.46c-1.06-1.37-2.36-2.67-3.32-4.08c-0.03-0.05-0.09-0.09-0.13-0.13c-0.56-0.57-1.17-1.13-1.67-1.73
	c-0.71-0.85-1.46-1.68-2.03-2.57c-0.23-0.36-0.6-0.68-0.95-1c-0.41-0.39-0.86-0.77-1.3-1.14c-0.25-0.22-0.39-0.45-0.43-0.72
	c-0.03-0.23,0.07-0.41,0.38-0.56c0.71-0.34,1.05-0.36,1.76-0.05c0.21,0.09,0.43,0.18,0.61,0.29c0.85,0.54,1.69,1.09,2.31,1.74
	c0.53,0.55,1.01,1.13,1.5,1.7c0.76,0.86,1.51,1.73,2.27,2.59c0.66,0.75,1.35,1.48,2,2.23c0.34,0.39,0.61,0.79,0.92,1.18
	c0.55,0.7,1.11,1.39,1.66,2.08c0.7,0.88,1.38,1.76,2.08,2.64c0.09,0.11,0.24,0.2,0.41,0.34c0.14-0.14,0.28-0.22,0.32-0.31
	c0.19-0.47,0.46-0.91,0.87-1.33c0.07-0.07,0.14-0.14,0.16-0.22c0.08-0.46,0.51-0.85,0.83-1.26c0.53-0.68,1.13-1.34,1.42-2.07
	c0.16-0.39,0.38-0.76,0.72-1.11c0.49-0.48,0.82-1.01,1.24-1.51c1.02-1.23,1.62-2.54,2.41-3.81c0.15-0.76,0.78-1.46,1.07-2.2
	c0.34-0.86,2.2-1.74,3.8-1.74c0.32,0,0.65,0.1,0.7,0.28c0.07,0.28,0.14,0.57,0.1,0.85c-0.08,0.47-0.25,0.93-0.39,1.4
	c-0.26,0.89-0.7,1.74-1.39,2.56c-0.16,0.19-0.3,0.39-0.42,0.59c-0.76,1.37-1.86,2.65-2.92,3.95C66.61,95.09,66.31,95.42,66.09,95.77
	z"/>
<path class="st3" d="M50.87,85.21c0.06,0.21,0.29,0.24,0.45,0.39c0.03,0.41,0.27,0.76,0.53,1.1c0.36,0.47,0.73,0.94,1.07,1.43
	c0.29,0.42,0.58,0.84,0.82,1.28c0.29,0.54,0.68,1.02,1.06,1.5c0.16,0.2,0.33,0.39,0.49,0.59c0.23,0.28,0.45,0.56,0.69,0.84
	c0.37,0.44,0.66,0.93,0.96,1.42c0.15,0.25,0.33,0.31,0.61,0.18c0.26-0.12,0.51-0.24,0.68-0.48c0.3-0.41,0.66-0.77,0.95-1.19
	c0.27-0.4,0.58-0.79,0.97-1.1c0.08-0.07,0.15-0.15,0.22-0.24c0.51-0.63,1.03-1.25,1.52-1.89c0.25-0.32,0.45-0.66,0.69-0.99
	c0.41-0.57,0.87-1.1,1.38-1.59c0.23-0.22,0.44-0.47,0.5-0.79c0.04-0.17,0.14-0.31,0.28-0.41c0.16-0.11,0.22-0.26,0.25-0.42
	c0.05-0.23-0.06-0.4-0.3-0.48c-0.08-0.03-0.21-0.02-0.25-0.07c-0.21-0.27-0.48-0.22-0.78-0.19c-0.39,0.04-0.79,0.11-1.2,0.06
	c-0.19-0.03-0.4,0.03-0.6,0.06c-0.35,0.04-0.71,0.07-1.06,0.02c-0.86-0.13-1.74-0.13-2.6-0.19c-0.26-0.02-0.51-0.04-0.77-0.08
	c-0.04-0.01-0.09-0.02-0.13-0.01c-0.27,0.01-0.54,0.02-0.81,0.03c-0.33,0.01-0.66,0.03-0.99,0.04c-0.29,0.01-0.58,0.02-0.86-0.01
	c-0.54-0.06-1.07,0-1.59,0.08c-0.53,0.08-1.06,0.05-1.6-0.02c-0.07,0.03-0.09,0.03-0.11,0.04c-0.17,0.12-0.45,0.13-0.51,0.36
	C50.74,84.72,50.81,84.97,50.87,85.21z"/>
<g>
	<path d="M144.35,113.87c-0.6-0.59-0.91-1.37-0.91-2.34v-5.28c0-0.97,0.3-1.75,0.91-2.33c0.6-0.58,1.4-0.87,2.39-0.87
		c1,0,1.81,0.29,2.41,0.87c0.6,0.58,0.91,1.35,0.91,2.3v0.15c0,0.11-0.05,0.16-0.16,0.16l-0.83,0.03c-0.11,0-0.16-0.05-0.16-0.15
		v-0.23c0-0.63-0.2-1.14-0.6-1.54c-0.4-0.39-0.92-0.59-1.56-0.59c-0.64,0-1.16,0.19-1.55,0.58c-0.39,0.39-0.59,0.9-0.59,1.54v5.42
		c0,0.64,0.2,1.16,0.59,1.54c0.39,0.39,0.91,0.58,1.55,0.58c0.64,0,1.16-0.2,1.56-0.59c0.4-0.39,0.6-0.9,0.6-1.54v-0.23
		c0-0.1,0.05-0.15,0.16-0.15l0.83,0.05c0.11,0,0.16,0.05,0.16,0.16v0.11c0,0.96-0.3,1.73-0.91,2.31c-0.6,0.58-1.41,0.87-2.41,0.87
		C145.75,114.75,144.95,114.45,144.35,113.87z"/>
	<path d="M157.09,114.32c-0.51-0.28-0.9-0.68-1.18-1.19c-0.28-0.51-0.42-1.11-0.42-1.78v-8.01c0-0.11,0.05-0.16,0.16-0.16h0.83
		c0.11,0,0.16,0.05,0.16,0.16v8.07c0,0.7,0.2,1.26,0.6,1.68c0.4,0.42,0.93,0.64,1.58,0.64s1.18-0.21,1.58-0.64s0.6-0.99,0.6-1.68
		v-8.07c0-0.11,0.05-0.16,0.16-0.16h0.83c0.11,0,0.16,0.05,0.16,0.16v8.01c0,0.68-0.14,1.27-0.42,1.78
		c-0.28,0.51-0.67,0.91-1.18,1.19c-0.51,0.28-1.09,0.42-1.76,0.42S157.6,114.61,157.09,114.32z"/>
	<path d="M168.07,114.45v-11.11c0-0.11,0.05-0.16,0.16-0.16h0.83c0.11,0,0.16,0.05,0.16,0.16v10.2c0,0.04,0.02,0.07,0.07,0.07h4.75
		c0.11,0,0.16,0.05,0.16,0.16v0.69c0,0.11-0.05,0.16-0.16,0.16h-5.82C168.12,114.62,168.07,114.56,168.07,114.45z"/>
	<path d="M184.07,103.34v0.69c0,0.11-0.05,0.16-0.16,0.16h-2.66c-0.04,0-0.06,0.02-0.06,0.07v10.2c0,0.11-0.05,0.16-0.16,0.16h-0.83
		c-0.11,0-0.16-0.05-0.16-0.16v-10.2c0-0.04-0.02-0.07-0.06-0.07h-2.57c-0.11,0-0.16-0.05-0.16-0.16v-0.69
		c0-0.11,0.05-0.16,0.16-0.16h6.52C184.01,103.18,184.07,103.23,184.07,103.34z"/>
	<path d="M190.81,114.32c-0.51-0.28-0.9-0.68-1.18-1.19c-0.28-0.51-0.42-1.11-0.42-1.78v-8.01c0-0.11,0.05-0.16,0.16-0.16h0.83
		c0.11,0,0.16,0.05,0.16,0.16v8.07c0,0.7,0.2,1.26,0.6,1.68c0.4,0.42,0.93,0.64,1.58,0.64s1.18-0.21,1.58-0.64s0.6-0.99,0.6-1.68
		v-8.07c0-0.11,0.05-0.16,0.16-0.16h0.83c0.11,0,0.16,0.05,0.16,0.16v8.01c0,0.68-0.14,1.27-0.42,1.78
		c-0.28,0.51-0.67,0.91-1.18,1.19c-0.51,0.28-1.09,0.42-1.76,0.42S191.31,114.61,190.81,114.32z"/>
	<path d="M207.2,114.49l-2.03-5.05c-0.01-0.03-0.03-0.05-0.07-0.05H203c-0.04,0-0.07,0.02-0.07,0.07v5c0,0.11-0.05,0.16-0.16,0.16
		h-0.83c-0.11,0-0.16-0.05-0.16-0.16v-11.11c0-0.11,0.05-0.16,0.16-0.16h3.46c0.57,0,1.07,0.13,1.51,0.39
		c0.44,0.26,0.78,0.63,1.03,1.11c0.25,0.48,0.37,1.03,0.37,1.65c0,0.74-0.18,1.37-0.54,1.9c-0.36,0.52-0.85,0.87-1.47,1.05
		c-0.04,0.02-0.05,0.05-0.03,0.08l2.11,5.07l0.02,0.07c0,0.09-0.05,0.13-0.15,0.13h-0.87C207.3,114.62,207.24,114.58,207.2,114.49z
		 M202.94,104.26v4.13c0,0.04,0.02,0.07,0.07,0.07h2.25c0.57,0,1.02-0.2,1.37-0.59c0.35-0.39,0.52-0.9,0.52-1.54
		c0-0.64-0.17-1.16-0.52-1.55c-0.35-0.39-0.81-0.59-1.37-0.59H203C202.96,104.19,202.94,104.21,202.94,104.26z"/>
	<path d="M219.8,104.19h-4.9c-0.04,0-0.07,0.02-0.07,0.07v4.05c0,0.04,0.02,0.07,0.07,0.07h3.3c0.11,0,0.16,0.05,0.16,0.16v0.69
		c0,0.11-0.05,0.16-0.16,0.16h-3.3c-0.04,0-0.07,0.02-0.07,0.07v4.09c0,0.04,0.02,0.07,0.07,0.07h4.9c0.11,0,0.16,0.05,0.16,0.16
		v0.69c0,0.11-0.05,0.16-0.16,0.16h-5.96c-0.11,0-0.16-0.05-0.16-0.16v-11.11c0-0.11,0.05-0.16,0.16-0.16h5.96
		c0.11,0,0.16,0.05,0.16,0.16v0.69C219.97,104.14,219.91,104.19,219.8,104.19z"/>
	<path d="M234.13,114.47l-2.97-11.11l-0.02-0.05c0-0.09,0.05-0.13,0.16-0.13h0.88c0.11,0,0.17,0.05,0.18,0.15l2.39,9.35
		c0.01,0.02,0.02,0.03,0.03,0.03s0.02-0.01,0.03-0.03l2.39-9.35c0.02-0.1,0.08-0.15,0.18-0.15h0.85c0.05,0,0.1,0.02,0.12,0.05
		c0.03,0.03,0.04,0.08,0.02,0.13l-2.97,11.11c-0.02,0.1-0.08,0.15-0.18,0.15h-0.92C234.22,114.62,234.15,114.57,234.13,114.47z"/>
	<path d="M247.78,114.47l-0.54-2.04c-0.01-0.03-0.04-0.05-0.08-0.05h-3.91c-0.04,0-0.07,0.02-0.08,0.05l-0.54,2.04
		c-0.02,0.1-0.08,0.15-0.18,0.15h-0.85c-0.05,0-0.09-0.02-0.12-0.05c-0.03-0.03-0.04-0.08-0.02-0.13l3.06-11.11
		c0.02-0.1,0.08-0.15,0.18-0.15h1.05c0.1,0,0.16,0.05,0.18,0.15l3.06,11.11l0.02,0.05c0,0.09-0.05,0.13-0.16,0.13h-0.87
		C247.86,114.62,247.8,114.57,247.78,114.47z M243.46,111.41c0.02,0.02,0.04,0.02,0.06,0.02h3.38c0.02,0,0.04-0.01,0.06-0.02
		c0.02-0.02,0.02-0.03,0.01-0.04l-1.73-6.57c-0.01-0.02-0.02-0.03-0.03-0.03c-0.01,0-0.02,0.01-0.03,0.03l-1.72,6.57
		C243.44,111.38,243.44,111.39,243.46,111.41z"/>
	<path d="M255.42,114.32c-0.51-0.28-0.9-0.68-1.18-1.19c-0.28-0.51-0.42-1.11-0.42-1.78v-8.01c0-0.11,0.05-0.16,0.16-0.16h0.83
		c0.11,0,0.16,0.05,0.16,0.16v8.07c0,0.7,0.2,1.26,0.6,1.68s0.93,0.64,1.58,0.64c0.65,0,1.18-0.21,1.58-0.64
		c0.4-0.42,0.6-0.99,0.6-1.68v-8.07c0-0.11,0.05-0.16,0.16-0.16h0.83c0.11,0,0.16,0.05,0.16,0.16v8.01c0,0.68-0.14,1.27-0.42,1.78
		c-0.28,0.51-0.67,0.91-1.18,1.19s-1.09,0.42-1.76,0.42C256.51,114.75,255.92,114.61,255.42,114.32z"/>
	<path d="M266.28,114.45v-11.11c0-0.11,0.05-0.16,0.16-0.16h3.19c0.97,0,1.73,0.28,2.3,0.83s0.84,1.31,0.84,2.27v5.23
		c0,0.96-0.28,1.72-0.84,2.27s-1.33,0.83-2.3,0.83h-3.19C266.33,114.62,266.28,114.56,266.28,114.45z M267.5,113.61h2.14
		c0.6-0.01,1.07-0.21,1.42-0.6s0.53-0.92,0.54-1.59v-5.03c0-0.68-0.17-1.21-0.52-1.6c-0.35-0.39-0.83-0.59-1.44-0.59h-2.14
		c-0.04,0-0.07,0.02-0.07,0.07v9.28C267.44,113.58,267.46,113.61,267.5,113.61z"/>
	<path d="M283.83,114.49l-2.03-5.05c-0.01-0.03-0.03-0.05-0.07-0.05h-2.11c-0.04,0-0.07,0.02-0.07,0.07v5
		c0,0.11-0.05,0.16-0.16,0.16h-0.83c-0.11,0-0.16-0.05-0.16-0.16v-11.11c0-0.11,0.05-0.16,0.16-0.16h3.46
		c0.57,0,1.07,0.13,1.51,0.39c0.44,0.26,0.79,0.63,1.03,1.11c0.25,0.48,0.37,1.03,0.37,1.65c0,0.74-0.18,1.37-0.54,1.9
		c-0.36,0.52-0.85,0.87-1.47,1.05c-0.04,0.02-0.05,0.05-0.03,0.08l2.11,5.07l0.02,0.07c0,0.09-0.05,0.13-0.15,0.13h-0.87
		C283.92,114.62,283.86,114.58,283.83,114.49z M279.56,104.26v4.13c0,0.04,0.02,0.07,0.07,0.07h2.25c0.57,0,1.02-0.2,1.37-0.59
		c0.35-0.39,0.52-0.9,0.52-1.54c0-0.64-0.17-1.16-0.52-1.55c-0.35-0.39-0.81-0.59-1.37-0.59h-2.25
		C279.58,104.19,279.56,104.21,279.56,104.26z"/>
	<path d="M296.43,104.19h-4.9c-0.04,0-0.07,0.02-0.07,0.07v4.05c0,0.04,0.02,0.07,0.07,0.07h3.3c0.11,0,0.16,0.05,0.16,0.16v0.69
		c0,0.11-0.05,0.16-0.16,0.16h-3.3c-0.04,0-0.07,0.02-0.07,0.07v4.09c0,0.04,0.02,0.07,0.07,0.07h4.9c0.11,0,0.16,0.05,0.16,0.16
		v0.69c0,0.11-0.05,0.16-0.16,0.16h-5.96c-0.11,0-0.16-0.05-0.16-0.16v-11.11c0-0.11,0.05-0.16,0.16-0.16h5.96
		c0.11,0,0.16,0.05,0.16,0.16v0.69C296.59,104.14,296.53,104.19,296.43,104.19z"/>
	<path d="M303.49,114.32c-0.51-0.28-0.9-0.68-1.18-1.19c-0.28-0.51-0.42-1.11-0.42-1.78v-8.01c0-0.11,0.05-0.16,0.16-0.16h0.83
		c0.11,0,0.16,0.05,0.16,0.16v8.07c0,0.7,0.2,1.26,0.6,1.68c0.4,0.42,0.93,0.64,1.58,0.64s1.18-0.21,1.58-0.64s0.6-0.99,0.6-1.68
		v-8.07c0-0.11,0.05-0.16,0.16-0.16h0.83c0.11,0,0.16,0.05,0.16,0.16v8.01c0,0.68-0.14,1.27-0.42,1.78
		c-0.28,0.51-0.67,0.91-1.18,1.19s-1.09,0.42-1.76,0.42C304.58,114.75,304,114.61,303.49,114.32z"/>
	<path d="M314.47,114.45v-11.11c0-0.11,0.05-0.16,0.16-0.16h0.83c0.11,0,0.16,0.05,0.16,0.16v11.11c0,0.11-0.05,0.16-0.16,0.16
		h-0.83C314.52,114.62,314.47,114.56,314.47,114.45z"/>
	<path d="M321.61,114.45v-11.11c0-0.11,0.05-0.16,0.16-0.16h0.83c0.11,0,0.16,0.05,0.16,0.16v10.2c0,0.04,0.02,0.07,0.07,0.07h4.75
		c0.11,0,0.16,0.05,0.16,0.16v0.69c0,0.11-0.05,0.16-0.16,0.16h-5.82C321.66,114.62,321.61,114.56,321.61,114.45z"/>
	<path d="M331.98,109.88v-0.69c0-0.11,0.05-0.16,0.16-0.16h4.28c0.11,0,0.16,0.05,0.16,0.16v0.69c0,0.11-0.05,0.16-0.16,0.16h-4.28
		C332.04,110.04,331.98,109.99,331.98,109.88z"/>
	<path d="M341.8,114.45v-11.11c0-0.11,0.05-0.16,0.16-0.16h3.19c0.97,0,1.73,0.28,2.3,0.83s0.84,1.31,0.84,2.27v5.23
		c0,0.96-0.28,1.72-0.84,2.27s-1.33,0.83-2.3,0.83h-3.19C341.86,114.62,341.8,114.56,341.8,114.45z M343.03,113.61h2.14
		c0.6-0.01,1.07-0.21,1.42-0.6s0.53-0.92,0.54-1.59v-5.03c0-0.68-0.17-1.21-0.52-1.6c-0.35-0.39-0.83-0.59-1.44-0.59h-2.14
		c-0.04,0-0.07,0.02-0.07,0.07v9.28C342.96,113.58,342.98,113.61,343.03,113.61z"/>
	<path d="M355.19,114.33c-0.51-0.28-0.9-0.67-1.18-1.17c-0.28-0.5-0.42-1.08-0.42-1.73v-5.05c0-0.65,0.14-1.23,0.42-1.74
		c0.28-0.51,0.67-0.9,1.18-1.18c0.51-0.28,1.09-0.42,1.76-0.42c0.67,0,1.25,0.14,1.76,0.42c0.51,0.28,0.9,0.67,1.18,1.18
		c0.28,0.51,0.42,1.09,0.42,1.74v5.05c0,0.65-0.14,1.23-0.42,1.73s-0.68,0.89-1.18,1.17c-0.51,0.28-1.09,0.42-1.76,0.42
		C356.29,114.75,355.7,114.61,355.19,114.33z M358.55,113.12c0.4-0.41,0.6-0.96,0.6-1.63v-5.13c0-0.69-0.2-1.24-0.6-1.66
		c-0.4-0.42-0.94-0.63-1.6-0.63c-0.65,0-1.18,0.21-1.58,0.63c-0.4,0.42-0.6,0.97-0.6,1.66v5.13c0,0.68,0.2,1.22,0.6,1.63
		s0.93,0.62,1.58,0.62C357.62,113.74,358.15,113.53,358.55,113.12z"/>
	<path d="M371.41,114.49l-2.03-5.05c-0.01-0.03-0.03-0.05-0.07-0.05h-2.11c-0.04,0-0.07,0.02-0.07,0.07v5
		c0,0.11-0.05,0.16-0.16,0.16h-0.83c-0.11,0-0.16-0.05-0.16-0.16v-11.11c0-0.11,0.05-0.16,0.16-0.16h3.46
		c0.57,0,1.07,0.13,1.51,0.39c0.44,0.26,0.79,0.63,1.03,1.11c0.25,0.48,0.37,1.03,0.37,1.65c0,0.74-0.18,1.37-0.54,1.9
		c-0.36,0.52-0.85,0.87-1.47,1.05c-0.04,0.02-0.05,0.05-0.03,0.08l2.11,5.07l0.02,0.07c0,0.09-0.05,0.13-0.15,0.13h-0.87
		C371.51,114.62,371.45,114.58,371.41,114.49z M367.15,104.26v4.13c0,0.04,0.02,0.07,0.07,0.07h2.25c0.57,0,1.02-0.2,1.37-0.59
		c0.35-0.39,0.52-0.9,0.52-1.54c0-0.64-0.17-1.16-0.52-1.55c-0.35-0.39-0.81-0.59-1.37-0.59h-2.25
		C367.17,104.19,367.15,104.21,367.15,104.26z"/>
	<path d="M377.88,114.45v-11.11c0-0.11,0.05-0.16,0.16-0.16h0.83c0.11,0,0.16,0.05,0.16,0.16v11.11c0,0.11-0.05,0.16-0.16,0.16
		h-0.83C377.94,114.62,377.88,114.56,377.88,114.45z"/>
	<path d="M386.31,114.33c-0.51-0.28-0.9-0.67-1.18-1.17c-0.28-0.5-0.42-1.08-0.42-1.73v-5.05c0-0.65,0.14-1.23,0.42-1.74
		c0.28-0.51,0.67-0.9,1.18-1.18c0.51-0.28,1.09-0.42,1.76-0.42c0.67,0,1.25,0.14,1.76,0.42c0.51,0.28,0.9,0.67,1.18,1.18
		c0.28,0.51,0.42,1.09,0.42,1.74v5.05c0,0.65-0.14,1.23-0.42,1.73s-0.68,0.89-1.18,1.17c-0.51,0.28-1.09,0.42-1.76,0.42
		C387.4,114.75,386.81,114.61,386.31,114.33z M389.67,113.12c0.4-0.41,0.6-0.96,0.6-1.63v-5.13c0-0.69-0.2-1.24-0.6-1.66
		c-0.4-0.42-0.94-0.63-1.6-0.63c-0.65,0-1.18,0.21-1.58,0.63c-0.4,0.42-0.6,0.97-0.6,1.66v5.13c0,0.68,0.2,1.22,0.6,1.63
		s0.93,0.62,1.58,0.62C388.73,113.74,389.26,113.53,389.67,113.12z"/>
	<path d="M402.95,103.18h0.83c0.11,0,0.16,0.05,0.16,0.16v11.11c0,0.11-0.05,0.16-0.16,0.16h-0.88c-0.1,0-0.16-0.04-0.2-0.11
		l-4.38-8.74c-0.02-0.02-0.04-0.03-0.06-0.03c-0.02,0-0.02,0.02-0.02,0.05l0.02,8.68c0,0.11-0.05,0.16-0.16,0.16h-0.83
		c-0.11,0-0.16-0.05-0.16-0.16v-11.11c0-0.11,0.05-0.16,0.16-0.16h0.88c0.1,0,0.16,0.04,0.2,0.11l4.38,8.78
		c0.02,0.02,0.04,0.03,0.06,0.03c0.02,0,0.02-0.02,0.02-0.05l-0.02-8.71C402.79,103.23,402.84,103.18,402.95,103.18z"/>
</g>
<g>
	<path d="M186.71,47.48v46.58h-7.39V62.58l0.13-1.93l-0.87,1.93l-12.51,19.96h-3.06l-12.51-19.96l-0.87-1.86l0.13,1.86v31.47h-7.39
		V47.48h6.92l14.57,23.36l0.66,1.33l0.67-1.33l14.57-23.36H186.71z"/>
	<path d="M286.12,54.33l-27.35,31.74l-1.33,1.2l2.06-0.13h26.62v6.92h-38.39V87.2l27.61-31.81l1.33-1.13l-2.06,0.13h-26.22v-6.92
		h37.73V54.33z"/>
	<path d="M346.33,94.05V47.48h7.39v46.58H346.33z"/>
	<path d="M403.35,47.48l-19.1,19.16l20.96,27.41h-9.18l-16.9-22.29l-6.32,6.32v15.97h-7.39V47.48h7.39v21.76l21.89-21.76H403.35z"/>
	<path class="st1" d="M223.44,96.5c3.63-0.6,6.72-2.11,9.45-4.19c0.96-0.73,1.58-1.76,2.36-2.62c0.78-0.86,1.94-1.48,2.59-2.47
		c0.93-1.42,1.77-2.88,2.73-4.28c0.85-1.23,1.01-2.59,1.31-3.94c0.15-0.65-0.13-1.17-0.7-1.61c-1.51-1.15-2.37-1.14-3.87,0.08
		c-0.29,0.23-0.64,0.47-0.79,0.76c-0.84,1.77-2.29,3.21-3.39,4.84c-1.07,1.59-2.26,3-4.32,3.74c-0.53,0.19-0.96,0.6-1.4,0.95
		c-0.44,0.34-0.76,0.83-1.26,1.07c-2.17,1.06-4.39,2.03-6.83,2.53c-1.26,0.26-2.55,0.31-3.85,0.05c-1.17-0.23-2.36-0.36-3.53-0.6
		c-2.32-0.46-4.28-1.39-5.46-3.28c-0.47-0.75-0.91-1.52-1.44-2.24c-1.39-1.89-2.16-4.05-3.63-5.92c-0.7-0.88-1.04-1.95-1.1-3.14
		c-0.09-1.81-1.35-3.22-3.24-4.07c-1-0.45-1.87-0.5-2.62,0.45c-0.51,0.63-1.03,1.25-1.47,1.79c0.04,0.82-0.02,1.53,0.13,2.19
		c0.21,0.91,0.07,1.91,0.77,2.72c0.85,1,1.1,2.2,1.49,3.35c0.17,0.49,0.24,1.01,0.48,1.47c0.53,1.01,1.14,2,1.73,2.99
		c1.61,2.7,3.44,5.25,6.62,6.81c1.04,0.51,2.07,1.03,3.16,1.45c2.18,0.84,4.39,1.63,6.9,1.26c0.43-0.06,0.93,0.17,1.31,0.25
		C217.89,97.66,222.4,96.68,223.44,96.5z"/>
	<path class="st1" d="M211.9,45.65c-3.63,0.6-6.72,2.11-9.45,4.19c-0.96,0.73-1.58,1.76-2.36,2.62c-0.78,0.86-1.94,1.48-2.59,2.47
		c-0.93,1.42-1.77,2.88-2.73,4.28c-0.85,1.23-1.01,2.59-1.31,3.94c-0.15,0.65,0.13,1.17,0.7,1.61c1.51,1.15,2.37,1.14,3.87-0.08
		c0.29-0.23,0.64-0.47,0.79-0.76c0.84-1.77,2.29-3.21,3.39-4.84c1.07-1.59,2.27-3,4.32-3.74c0.53-0.19,0.96-0.6,1.4-0.95
		c0.44-0.34,0.76-0.83,1.26-1.07c2.17-1.06,4.39-2.03,6.83-2.53c1.26-0.26,2.55-0.31,3.85-0.05c1.17,0.23,2.36,0.36,3.53,0.6
		c2.32,0.46,4.28,1.39,5.46,3.28c0.47,0.75,0.91,1.52,1.44,2.24c1.39,1.89,2.16,4.05,3.63,5.92c0.7,0.88,1.04,1.95,1.1,3.14
		c0.09,1.81,1.35,3.22,3.24,4.07c1,0.45,1.87,0.5,2.62-0.45c0.51-0.63,1.03-1.25,1.47-1.79c-0.04-0.82,0.02-1.53-0.13-2.19
		c-0.21-0.91-0.07-1.91-0.77-2.72c-0.85-1-1.1-2.2-1.49-3.35c-0.17-0.49-0.24-1.01-0.48-1.47c-0.53-1.01-1.14-2-1.73-2.99
		c-1.61-2.7-3.44-5.25-6.62-6.81c-1.04-0.51-2.07-1.03-3.16-1.45c-2.18-0.84-4.39-1.63-6.9-1.26c-0.43,0.06-0.93-0.17-1.31-0.25
		C217.46,44.49,212.95,45.47,211.9,45.65z"/>
	<path class="st2" d="M340.77,91c-0.25-1.27-0.65-2.52-1-3.77c-0.66-2.38-1.61-4.64-2.96-6.72c-0.32-0.49-0.61-0.99-0.84-1.52
		c-1.62-3.58-3.77-6.85-5.87-10.16c-0.54-0.86-1.14-1.69-1.59-2.59c-1.23-2.47-2.63-4.84-4.16-7.13c-1.02-1.52-1.8-3.15-2.43-4.85
		c-0.3-0.83-0.71-1.57-1.2-2.3c-1.07-1.6-2.58-2.81-3.89-4.2v-0.18c-0.07-0.03-0.15-0.03-0.23-0.05c-0.01-0.01-0.03-0.03-0.04-0.04
		c-0.2-0.22-0.6-0.18-0.96-0.03v0.43c-1.3,1.39-2.82,2.6-3.89,4.2c-0.48,0.73-0.89,1.48-1.2,2.3c-0.63,1.7-1.41,3.33-2.43,4.85
		c-1.53,2.29-2.93,4.66-4.16,7.13c-0.45,0.9-1.05,1.73-1.59,2.59c-2.09,3.31-4.25,6.58-5.87,10.16c-0.24,0.53-0.53,1.03-0.84,1.52
		c-1.35,2.08-2.3,4.34-2.96,6.72c-0.35,1.25-0.75,2.5-1,3.77c-0.15,0.77-0.1,1.58-0.05,2.38c0.03,0.5,0.56,0.86,1.1,0.95
		c2.7,0.44,6.03-1.52,6.81-3.8c0.68-1.97,1.89-3.74,2.34-5.81c1.65-3.3,2.98-6.76,4.99-9.89c0.82-1.28,1.51-2.63,2.45-3.84
		c0.66-0.85,1.12-1.82,1.49-2.87c0.66-1.92,1.83-3.61,2.89-5.34c0.64-1.04,1.46-2,1.7-3.26c0.04-0.2,0.18-0.39,0.31-0.57
		c0.22-0.29,0.37-0.62,0.55-0.93c0.16,0.27,0.29,0.55,0.48,0.8c0.13,0.17,0.28,0.36,0.31,0.57c0.24,1.25,1.06,2.21,1.7,3.26
		c1.06,1.73,2.23,3.42,2.89,5.34c0.36,1.05,0.83,2.02,1.49,2.87c0.94,1.21,1.63,2.56,2.45,3.84c2.01,3.13,3.34,6.59,4.99,9.89
		c0.45,2.07,1.66,3.84,2.34,5.81c0.78,2.28,4.11,4.24,6.81,3.8c0.54-0.09,1.07-0.45,1.1-0.95C340.87,92.58,340.92,91.77,340.77,91z"
		/>
	<path class="st3" d="M327.59,92.1c-0.08-0.43-0.21-0.86-0.33-1.28l-0.12-0.43c-0.33-1.18-0.78-2.2-1.37-3.11
		c-0.13-0.19-0.24-0.4-0.34-0.61c-0.65-1.45-1.51-2.79-2.34-4.09l-0.51-0.79c-0.17-0.25-0.33-0.51-0.47-0.78
		c-0.53-1.07-1.16-2.15-1.87-3.21c-0.4-0.6-0.73-1.26-1.02-2.04c-0.14-0.38-0.32-0.74-0.58-1.12c-0.35-0.53-0.79-0.96-1.22-1.37
		c-0.14-0.14-0.28-0.27-0.42-0.41v-0.21l-0.31-0.13c-0.02-0.01-0.05-0.02-0.07-0.02c-0.23-0.16-0.55-0.17-0.88-0.03l-0.31,0.13v0.32
		c-0.14,0.14-0.28,0.28-0.42,0.41c-0.42,0.41-0.87,0.84-1.22,1.37c-0.26,0.39-0.45,0.75-0.58,1.13c-0.29,0.78-0.62,1.44-1.02,2.04
		c-0.71,1.07-1.34,2.15-1.87,3.21c-0.14,0.27-0.31,0.53-0.47,0.79l-0.49,0.77c-0.83,1.3-1.68,2.65-2.34,4.11
		c-0.1,0.21-0.21,0.41-0.34,0.61c-0.6,0.92-1.05,1.94-1.38,3.12l-0.12,0.43c-0.12,0.42-0.24,0.85-0.33,1.28
		c-0.08,0.39-0.05,0.8-0.03,1.18c0.03,0.44,0.4,0.81,0.91,0.89c0.14,0.02,0.28,0.03,0.42,0.03c1.31,0,2.76-0.91,3.16-2.05
		c0.12-0.34,0.27-0.66,0.43-0.99c0.24-0.49,0.48-1,0.61-1.58c0.22-0.45,0.43-0.91,0.65-1.37c0.45-0.98,0.92-1.99,1.51-2.91
		c0.13-0.2,0.25-0.41,0.37-0.61c0.22-0.37,0.43-0.73,0.68-1.05c0.3-0.39,0.54-0.85,0.74-1.42c0.22-0.65,0.6-1.25,0.99-1.87
		l0.24-0.39c0.06-0.1,0.13-0.2,0.2-0.31c0.18-0.27,0.37-0.56,0.5-0.89c0.13,0.31,0.31,0.59,0.48,0.84c0.07,0.1,0.14,0.2,0.2,0.31
		l0.24,0.39c0.39,0.63,0.77,1.22,0.99,1.87c0.19,0.56,0.43,1.03,0.74,1.42c0.25,0.33,0.46,0.68,0.69,1.06
		c0.12,0.2,0.24,0.41,0.37,0.61c0.59,0.91,1.06,1.93,1.51,2.91c0.21,0.46,0.42,0.91,0.65,1.37c0.13,0.57,0.38,1.08,0.61,1.58
		c0.15,0.32,0.31,0.65,0.43,0.99c0.44,1.27,2.17,2.24,3.58,2.02c0.51-0.08,0.89-0.45,0.91-0.92C327.64,92.9,327.67,92.5,327.59,92.1
		z"/>
	<path class="st4" d="M220.01,70.68c-1.01-0.05-2.04,0.04-3.05,0.06c-0.72,0.01-1.47,0.13-2.14-0.01c-1.97-0.42-3.85,0.35-5.79,0.28
		c-0.26-0.01-0.57,0.2-0.79,0.38c-0.93,0.75-0.87,2.51,0.1,3.15c0.83,0.56,1.77,0.87,2.83,0.93c2.46,0.15,4.91,0.32,7.36,0.54
		c2.35,0.21,4.69,0.48,6.95-0.41c0.09-0.03,0.2-0.03,0.31-0.02c1.32,0.05,2.06-0.59,2.58-1.58c0.61-1.17,0.5-2.13-0.58-2.92
		c-0.61-0.45-1.37-0.75-2.31-1.25C223.91,71.23,221.94,70.78,220.01,70.68z"/>
</g>
</svg>
