<?xml version="1.0" encoding="UTF-8" standalone="no"?>
<svg width="147px" height="120px" viewBox="0 0 147 120" version="1.1" xmlns="http://www.w3.org/2000/svg" xmlns:xlink="http://www.w3.org/1999/xlink" xmlns:sketch="http://www.bohemiancoding.com/sketch/ns">
    <!-- Generator: Sketch 3.4.4 (17249) - http://www.bohemiancoding.com/sketch -->
    <title>Appareil photo</title>
    <desc>Created with Sketch.</desc>
    <defs>
        <rect id="path-1" x="0" y="0" width="133" height="63.84" rx="3.99"></rect>
        <filter x="-50%" y="-50%" width="200%" height="200%" filterUnits="objectBoundingBox" id="filter-3">
            <feOffset dx="0" dy="3" in="SourceAlpha" result="shadowOffsetOuter1"></feOffset>
            <feGaussianBlur stdDeviation="0" in="shadowOffsetOuter1" result="shadowBlurOuter1"></feGaussianBlur>
            <feColorMatrix values="0 0 0 0 0   0 0 0 0 0   0 0 0 0 0  0 0 0 0.14 0" in="shadowBlurOuter1" type="matrix" result="shadowMatrixOuter1"></feColorMatrix>
            <feMerge>
                <feMergeNode in="shadowMatrixOuter1"></feMergeNode>
                <feMergeNode in="SourceGraphic"></feMergeNode>
            </feMerge>
        </filter>
        <circle id="path-4" cx="8.645" cy="8.645" r="8.645"></circle>
        <filter x="-50%" y="-50%" width="200%" height="200%" filterUnits="objectBoundingBox" id="filter-6">
            <feOffset dx="0" dy="1" in="SourceAlpha" result="shadowOffsetOuter1"></feOffset>
            <feGaussianBlur stdDeviation="0" in="shadowOffsetOuter1" result="shadowBlurOuter1"></feGaussianBlur>
            <feColorMatrix values="0 0 0 0 0   0 0 0 0 0   0 0 0 0 0  0 0 0 0.35 0" in="shadowBlurOuter1" type="matrix" result="shadowMatrixOuter1"></feColorMatrix>
            <feMerge>
                <feMergeNode in="shadowMatrixOuter1"></feMergeNode>
                <feMergeNode in="SourceGraphic"></feMergeNode>
            </feMerge>
        </filter>
        <filter x="-50%" y="-50%" width="200%" height="200%" filterUnits="objectBoundingBox" id="filter-7">
            <feOffset dx="0" dy="3" in="SourceAlpha" result="shadowOffsetOuter1"></feOffset>
            <feGaussianBlur stdDeviation="0" in="shadowOffsetOuter1" result="shadowBlurOuter1"></feGaussianBlur>
            <feColorMatrix values="0 0 0 0 0   0 0 0 0 0   0 0 0 0 0  0 0 0 0.14 0" in="shadowBlurOuter1" type="matrix" result="shadowMatrixOuter1"></feColorMatrix>
            <feMerge>
                <feMergeNode in="shadowMatrixOuter1"></feMergeNode>
                <feMergeNode in="SourceGraphic"></feMergeNode>
            </feMerge>
        </filter>
        <filter x="-50%" y="-50%" width="200%" height="200%" filterUnits="objectBoundingBox" id="filter-8">
            <feOffset dx="0" dy="3" in="SourceAlpha" result="shadowOffsetOuter1"></feOffset>
            <feGaussianBlur stdDeviation="0" in="shadowOffsetOuter1" result="shadowBlurOuter1"></feGaussianBlur>
            <feColorMatrix values="0 0 0 0 0   0 0 0 0 0   0 0 0 0 0  0 0 0 0.191624207 0" in="shadowBlurOuter1" type="matrix" result="shadowMatrixOuter1"></feColorMatrix>
            <feMerge>
                <feMergeNode in="shadowMatrixOuter1"></feMergeNode>
                <feMergeNode in="SourceGraphic"></feMergeNode>
            </feMerge>
        </filter>
    </defs>
    <g id="Page-1" stroke="none" stroke-width="1" fill="none" fill-rule="evenodd" sketch:type="MSPage">
        <g id="Accueil" sketch:type="MSArtboardGroup" transform="translate(-678.000000, -756.000000)">
            <g id="Appareil-photo" sketch:type="MSLayerGroup" transform="translate(678.300000, 756.750000)">
                <g id="Oval-14" transform="translate(6.650000, 54.530000)">
                    <mask id="mask-2" sketch:name="Mask" fill="white">
                        <use xlink:href="#path-1"></use>
                    </mask>
                    <use id="Mask" fill="#323631" sketch:type="MSShapeGroup" xlink:href="#path-1"></use>
                    <circle opacity="0.9" fill="#6FD091" sketch:type="MSShapeGroup" mask="url(#mask-2)" cx="75.81" cy="27.93" r="29.26"></circle>
                    <rect id="Rectangle-629" fill="#141A18" sketch:type="MSShapeGroup" mask="url(#mask-2)" x="0" y="55.86" width="133" height="7.98" rx="3.99"></rect>
                </g>
                <rect id="Rectangle-89" opacity="0.4" fill="#2C8C79" sketch:type="MSShapeGroup" x="18.62" y="54.53" width="2.66" height="55.86"></rect>
                <rect id="Rectangle-89-Copy" opacity="0.4" fill="#2C8C79" sketch:type="MSShapeGroup" x="125.02" y="54.53" width="2.66" height="55.86"></rect>
                <circle id="Oval-14-Copy-2" opacity="0.9" fill="#90E692" filter="url(#filter-3)" sketch:type="MSShapeGroup" cx="82.46" cy="82.46" r="21.28"></circle>
                <circle id="Oval-14-Copy-3" fill="#2A2927" sketch:type="MSShapeGroup" cx="82.46" cy="82.46" r="6.65"></circle>
                <path d="M83.79,82.46 C83.79,80.9909226 82.5990774,79.8 81.13,79.8 C79.6609226,79.8 78.47,80.9909226 78.47,82.46" id="Oval-14-Copy-4" stroke="#69C187" stroke-width="2.66" fill="#E4FAB1" sketch:type="MSShapeGroup" transform="translate(81.130000, 81.130000) rotate(-45.000000) translate(-81.130000, -81.130000) "></path>
                <g id="Rectangle-87-+-Rectangle-87-Copy-Mask" transform="translate(33.250000, 77.140000)">
                    <mask id="mask-5" sketch:name="Mask" fill="white">
                        <use xlink:href="#path-4"></use>
                    </mask>
                    <use id="Mask" fill="#69C086" sketch:type="MSShapeGroup" xlink:href="#path-4"></use>
                    <g id="Rectangle-87-+-Rectangle-87-Copy" mask="url(#mask-5)" fill="#569D6D" sketch:type="MSShapeGroup">
                        <g transform="translate(8.312500, 8.069093) rotate(-30.000000) translate(-8.312500, -8.069093) translate(-4.322500, -5.230907)">
                            <rect id="Rectangle-87" x="13.3" y="1.33" width="10.64" height="11.97"></rect>
                            <rect id="Rectangle-87-Copy" x="1.33" y="14.63" width="10.64" height="11.97"></rect>
                        </g>
                    </g>
                </g>
                <circle id="Oval-15-Copy" fill="#569E6E" filter="url(#filter-6)" sketch:type="MSShapeGroup" cx="41.895" cy="85.785" r="1.995"></circle>
                <path d="M2.66,79.8 L6.65,79.8 L6.65,83.79 L2.66,83.79 L2.66,86.45 L0,86.45 L0,77.14 L2.66,77.14 L2.66,79.8 Z" id="Rectangle-79" fill="#2A2927" sketch:type="MSShapeGroup"></path>
                <path d="M143.64,83.79 L143.64,86.45 L146.3,86.45 L146.3,77.14 L143.64,77.14 L143.64,79.8 L139.65,79.8 L139.65,83.79 L143.64,83.79 Z" id="Rectangle-81-Copy" fill="#2A2927" sketch:type="MSShapeGroup"></path>
                <rect id="Rectangle-83-Copy" fill="#000000" sketch:type="MSShapeGroup" x="34.58" y="46.55" width="9.31" height="7.98"></rect>
                <rect id="Rectangle-83" fill="#2A2927" sketch:type="MSShapeGroup" x="30.59" y="46.55" width="17.29" height="6.65"></rect>
                <path d="M32.585,47.215 L32.585,52.535" id="Line" stroke="#54524C" stroke-width="1.33" stroke-linecap="square" sketch:type="MSShapeGroup"></path>
                <path d="M35.245,47.215 L35.245,52.535" id="Line-Copy-6" stroke="#54524C" stroke-width="1.33" stroke-linecap="square" sketch:type="MSShapeGroup"></path>
                <path d="M37.905,47.215 L37.905,52.535" id="Line-Copy-7" stroke="#54524C" stroke-width="1.33" stroke-linecap="square" sketch:type="MSShapeGroup"></path>
                <path d="M40.565,47.215 L40.565,52.535" id="Line-Copy-8" stroke="#54524C" stroke-width="1.33" stroke-linecap="square" sketch:type="MSShapeGroup"></path>
                <path d="M43.225,47.215 L43.225,52.535" id="Line-Copy-9" stroke="#54524C" stroke-width="1.33" stroke-linecap="square" sketch:type="MSShapeGroup"></path>
                <path d="M45.885,47.215 L45.885,52.535" id="Line-Copy-10" stroke="#54524C" stroke-width="1.33" stroke-linecap="square" sketch:type="MSShapeGroup"></path>
                <path d="M58.52,11.9698941 C58.52,10.5008752 59.719594,9.31 61.1733853,9.31 L71.8266147,9.31 C73.292039,9.31 74.48,10.4962817 74.48,11.9698941 L74.48,54.53 L58.52,54.53 L58.52,11.9698941 Z M66.5,17.4264103 C67.9690774,17.4264103 69.16,16.3881701 69.16,15.1074359 C69.16,13.8267017 67.9690774,12.7884615 66.5,12.7884615 C65.0309226,12.7884615 63.84,13.8267017 63.84,15.1074359 C63.84,16.3881701 65.0309226,17.4264103 66.5,17.4264103 Z" id="Rectangle-92" fill="#2A2927" sketch:type="MSShapeGroup"></path>
                <rect id="Rectangle-91" fill="#2B9F85" sketch:type="MSShapeGroup" x="59.85" y="51.87" width="13.3" height="2.66"></rect>
                <path d="M77.14,26.6 L77.14,45.22 L55.86,45.22 L55.86,26.6 L50.5467485,26.6 C47.6048666,26.6 45.22,24.216018 45.22,21.2810241 L45.22,5.31897586 C45.22,2.38138661 47.5998288,0 50.5467485,0 L81.1232515,0 C84.0651334,0 86.45,2.38398197 86.45,5.31897586 L86.45,21.2810241 C86.45,24.2186134 84.0701712,26.6 81.1232515,26.6 L77.14,26.6 Z M50.54,5.32 L81.13,5.32 L81.13,22.61 L50.54,22.61 L50.54,5.32 Z" id="Rectangle-85" fill="#73D290" filter="url(#filter-7)" sketch:type="MSShapeGroup"></path>
                <path d="M81.13,41.23 L81.13,47.8743274 C81.13,48.611999 80.5322614,49.21 79.796726,49.21 L53.203274,49.21 C52.4669271,49.21 51.87,48.610203 51.87,47.8743274 L51.87,41.23" id="Rectangle-88" stroke="#73D290" stroke-width="2.66" filter="url(#filter-8)" sketch:type="MSShapeGroup"></path>
            </g>
        </g>
    </g>
</svg>