<?xml version="1.0" encoding="UTF-8" standalone="no"?>
<svg width="107px" height="113px" viewBox="0 0 107 113" version="1.1" xmlns="http://www.w3.org/2000/svg" xmlns:xlink="http://www.w3.org/1999/xlink" xmlns:sketch="http://www.bohemiancoding.com/sketch/ns">
    <!-- Generator: Sketch 3.4.4 (17249) - http://www.bohemiancoding.com/sketch -->
    <title>Fill 1 + Path + Fill 2 + Path + Fill 3 + Path + Fill 4 + Path Mask</title>
    <desc>Created with Sketch.</desc>
    <defs>
        <filter x="-50%" y="-50%" width="200%" height="200%" filterUnits="objectBoundingBox" id="filter-1">
            <feOffset dx="0" dy="5" in="SourceAlpha" result="shadowOffsetOuter1"></feOffset>
            <feGaussianBlur stdDeviation="0" in="shadowOffsetOuter1" result="shadowBlurOuter1"></feGaussianBlur>
            <feColorMatrix values="0 0 0 0 0   0 0 0 0 0   0 0 0 0 0  0 0 0 0.177655118 0" in="shadowBlurOuter1" type="matrix" result="shadowMatrixOuter1"></feColorMatrix>
            <feMerge>
                <feMergeNode in="shadowMatrixOuter1"></feMergeNode>
                <feMergeNode in="SourceGraphic"></feMergeNode>
            </feMerge>
        </filter>
        <rect id="path-2" x="0" y="0" width="106.4" height="106.4" rx="5.32"></rect>
    </defs>
    <g id="Page-1" stroke="none" stroke-width="1" fill="none" fill-rule="evenodd" sketch:type="MSPage">
        <g id="Accueil" sketch:type="MSArtboardGroup" transform="translate(-917.000000, -764.000000)">
            <g id="Fill-1-+-Path-+-Fill-2-+-Path-+-Fill-3-+-Path-+-Fill-4-+-Path-Mask" sketch:type="MSLayerGroup" transform="translate(917.040000, 764.730000)">
                <mask id="mask-3" sketch:name="Mask" fill="white">
                    <use xlink:href="#path-2"></use>
                </mask>
                <use id="Mask" fill="#E2D8C0" filter="url(#filter-1)" sketch:type="MSShapeGroup" xlink:href="#path-2"></use>
                <path d="M91.77,29.26 L106.4,29.26 L106.4,66.5 L91.77,66.5 L91.77,29.26 Z" id="Fill-1" fill="#D99E40" sketch:type="MSShapeGroup" mask="url(#mask-3)"></path>
                <path d="M5.32,58.7151547 C5.32,65.1913993 10.1081674,70.4421931 16.0304553,70.4884064 L19.95,70.49 L19.95,45.0168775 C19.95,38.5406329 15.1572286,33.2946198 9.23494073,33.25 L5.32,33.25 L5.32,58.7151547 L5.32,58.7151547 Z" id="Path" fill="#663645" sketch:type="MSShapeGroup" mask="url(#mask-3)"></path>
                <path d="M38.57,122.36 C33.6071358,121.290001 29.1473479,118.490305 25.8434013,114.359949 C22.0487237,109.614947 19.95,103.249661 19.95,96.4274135 C19.95,89.5536771 22.0795873,83.1449477 25.926733,78.3854645 C29.2183342,74.3098151 33.6472584,71.5519537 38.57,70.49 L38.57,122.36 L38.57,122.36 Z" id="Fill-2" fill="#C01E13" sketch:type="MSShapeGroup" mask="url(#mask-3)"></path>
                <path d="M80.3657792,31.6148627 C84.1240434,26.928888 86.45,20.7146337 86.45,13.9064052 C86.45,7.04841138 84.3169728,0.655964842 80.4722762,-4.09101266 C77.1801293,-8.15732785 72.7535577,-10.9088731 67.83,-11.97 L67.83,39.9 L81.1714523,39.9 L79.1155968,33.0468221 C79.5446718,32.5844855 79.9644861,32.1109115 80.3657792,31.6148627 L80.3657792,31.6148627 Z" id="Path" fill="#D3591F" sketch:type="MSShapeGroup" mask="url(#mask-3)"></path>
                <path d="M21.28,-19.95 L35.91,-19.95 L35.91,29.26 L21.28,29.26 L21.28,-19.95 Z" id="Fill-3" fill="#838482" sketch:type="MSShapeGroup" mask="url(#mask-3)"></path>
                <path d="M59.8354043,44.2569186 C59.4809062,37.2438421 54.4873734,32.8464535 48.6091235,32.5652987 C54.4384772,32.2825643 58.5259007,27.4602844 58.6695336,21.9398559 C58.6817576,21.4991693 58.6924537,20.2276543 58.6695336,19.7996039 C58.3425397,13.303031 53.5705682,9.31 48.0727925,9.31 L45.22,9.31 L45.22,58.52 L48.0055601,58.52 C54.8311754,58.52 59.6703793,52.9964125 59.8354043,46.646735 C59.8491564,46.1539242 59.8598524,44.7370932 59.8354043,44.2569186 L59.8354043,44.2569186 Z" id="Path" fill="#372D7A" sketch:type="MSShapeGroup" mask="url(#mask-3)"></path>
                <path d="M70.49,77.5459501 L72.7369228,70.49 L84.0650915,70.49 L99.75,119.7 L83.8876604,119.7 L70.49,77.5459501 L70.49,77.5459501 Z" id="Fill-4" fill="#5A6C18" sketch:type="MSShapeGroup" mask="url(#mask-3)"></path>
                <path d="M56.5366085,62.51 L47.88,89.11 L65.17,89.11 L56.5366085,62.51 L56.5366085,62.51 Z" id="Path" fill="#DCA16A" sketch:type="MSShapeGroup" mask="url(#mask-3)"></path>
            </g>
        </g>
    </g>
</svg>